<svg width="80" height="80" viewBox="0 0 80 80" fill="none" xmlns="http://www.w3.org/2000/svg">
<circle cx="40" cy="40" r="39" fill="#EEEEEE" stroke="#AAAAAA" stroke-width="2"/>
<mask id="path-2-inside-1_10_2158" fill="white">
<path fill-rule="evenodd" clip-rule="evenodd" d="M10 66.4582V65C10 55.025 29.9875 50 40 50C50.0125 50 70 55.025 70 65V66.4582C62.6706 74.7624 51.9469 80 40 80C28.0531 80 17.3294 74.7624 10 66.4582ZM40 16.6667C31.7125 16.6667 25 23.3792 25 31.6667C25 39.9542 31.7125 46.6667 40 46.6667C48.2875 46.6667 55 39.9542 55 31.6667C55 23.3792 48.2875 16.6667 40 16.6667Z"/>
</mask>
<path fill-rule="evenodd" clip-rule="evenodd" d="M10 66.4582V65C10 55.025 29.9875 50 40 50C50.0125 50 70 55.025 70 65V66.4582C62.6706 74.7624 51.9469 80 40 80C28.0531 80 17.3294 74.7624 10 66.4582ZM40 16.6667C31.7125 16.6667 25 23.3792 25 31.6667C25 39.9542 31.7125 46.6667 40 46.6667C48.2875 46.6667 55 39.9542 55 31.6667C55 23.3792 48.2875 16.6667 40 16.6667Z" fill="#EEEEEE"/>
<path d="M10 66.4582H8V67.2146L8.50052 67.7817L10 66.4582ZM70 66.4582L71.4995 67.7817L72 67.2146V66.4582H70ZM12 66.4582V65H8V66.4582H12ZM12 65C12 63.2408 12.8654 61.5519 14.6359 59.9177C16.4201 58.2711 18.9869 56.8186 21.9891 55.6159C27.9966 53.2093 35.2438 52 40 52V48C34.7437 48 26.9909 49.3032 20.5016 51.9028C17.2553 53.2033 14.1994 54.8774 11.923 56.9783C9.63307 59.0918 8 61.7717 8 65H12ZM40 52C44.7562 52 52.0034 53.2093 58.0109 55.6159C61.0131 56.8186 63.5799 58.2711 65.3641 59.9177C67.1346 61.5519 68 63.2408 68 65H72C72 61.7717 70.3669 59.0918 68.077 56.9783C65.8006 54.8774 62.7447 53.2033 59.4984 51.9028C53.0091 49.3032 45.2563 48 40 48V52ZM68 65V66.4582H72V65H68ZM68.5005 65.1348C61.5346 73.0271 51.3493 78 40 78V82C52.5445 82 63.8065 76.4978 71.4995 67.7817L68.5005 65.1348ZM40 78C28.6507 78 18.4654 73.0271 11.4995 65.1348L8.50052 67.7817C16.1935 76.4978 27.4554 82 40 82V78ZM27 31.6667C27 24.4837 32.8171 18.6667 40 18.6667V14.6667C30.6079 14.6667 23 22.2746 23 31.6667H27ZM40 44.6667C32.8171 44.6667 27 38.8496 27 31.6667H23C23 41.0587 30.6079 48.6667 40 48.6667V44.6667ZM53 31.6667C53 38.8496 47.1829 44.6667 40 44.6667V48.6667C49.3921 48.6667 57 41.0587 57 31.6667H53ZM40 18.6667C47.1829 18.6667 53 24.4837 53 31.6667H57C57 22.2746 49.3921 14.6667 40 14.6667V18.6667Z" fill="#AAAAAA" mask="url(#path-2-inside-1_10_2158)"/>
</svg>
