<svg width="539" height="382" viewBox="0 0 539 382" fill="none" xmlns="http://www.w3.org/2000/svg">
<g clip-path="url(#clip0_116_487)">
<path opacity="0.1" d="M179.195 381.785C205.444 381.785 226.723 378.366 226.723 374.148C226.723 369.929 205.444 366.51 179.195 366.51C152.946 366.51 131.667 369.929 131.667 374.148C131.667 378.366 152.946 381.785 179.195 381.785Z" fill="#0BA4B2"/>
<path opacity="0.1" d="M437.55 382C470.304 382 496.857 378.581 496.857 374.362C496.857 370.144 470.304 366.725 437.55 366.725C404.795 366.725 378.242 370.144 378.242 374.362C378.242 378.581 404.795 382 437.55 382Z" fill="#0BA4B2"/>
<path opacity="0.1" d="M6.75066 165.051H56.254V232.561H10.3748C10.2528 233.254 10.1358 233.951 10.0089 234.649H56.254V289.094C56.171 289.069 56.0979 289.04 56.0198 289.011C54.7126 288.494 53.4152 287.947 52.1177 287.361L51.2885 286.986C49.9878 286.371 48.6871 285.72 47.3864 285.033C46.9328 284.794 46.4791 284.545 46.0304 284.292C38.8094 280.245 32.2496 275.116 26.5783 269.085C26.4125 268.924 26.2564 268.753 26.0906 268.597C25.3004 267.738 24.5248 266.869 23.7737 265.981L22.9445 265.005C22.0567 263.916 21.1983 262.799 20.3642 261.667C20.2422 261.501 20.1252 261.335 19.9984 261.179C16.6062 256.473 13.7896 251.377 11.6088 246.001C11.5405 245.84 11.482 245.664 11.4186 245.513C10.7487 243.788 10.1553 242.048 9.63823 240.291C9.41386 239.554 9.19925 238.827 9.01389 238.061C8.94561 237.836 8.88707 237.617 8.83342 237.397C6.06291 226.577 5.73611 215.338 5.73611 204.177C5.73611 202.874 5.73611 201.566 5.73611 200.273C5.73611 195.758 5.78977 191.215 5.86781 186.676C5.86781 185.5 5.91658 184.329 5.94097 183.148C6.00926 180.151 6.10681 177.155 6.23363 174.158C6.2629 173.324 6.30192 172.494 6.34582 171.664C6.34582 171.186 6.37021 170.708 6.41898 170.229C6.53605 168.492 6.6336 166.769 6.75066 165.051Z" fill="#0BA4B2"/>
<path opacity="0.1" d="M56.2539 89.8852H29.1C33.5141 82.9727 38.3369 76.3301 43.5428 69.9932C47.5766 65.0348 51.8348 60.2033 56.2539 55.5475V89.8852Z" fill="#0BA4B2"/>
<path opacity="0.1" d="M56.2539 91.974V162.963H6.90674C6.90674 162.758 6.94088 162.548 6.95551 162.343C6.99941 161.782 7.04331 161.22 7.09209 160.664C7.14574 160.01 7.20427 159.351 7.26768 158.712C7.33109 158.073 7.39938 157.292 7.47255 156.584C7.54571 155.877 7.614 155.159 7.69692 154.451C7.77984 153.744 7.853 153.036 7.9408 152.333C8.0286 151.631 8.10664 150.918 8.19932 150.215C8.27248 149.63 8.35052 149.049 8.42856 148.463C8.54075 147.639 8.65781 146.809 8.78463 145.989C8.78463 145.867 8.81878 145.74 8.83829 145.623C9.72855 139.621 10.9416 133.672 12.4721 127.8C14.0742 121.641 16.1201 115.606 18.5936 109.743C21.2225 103.609 24.3005 97.6784 27.8026 91.9984L56.2539 91.974Z" fill="#0BA4B2"/>
<path opacity="0.1" d="M68.0725 165.047V232.561H173.805V165.047H68.0725ZM68.0725 234.644V292.622C68.6773 292.749 69.2773 292.871 69.8723 292.974C70.682 293.13 71.4868 293.271 72.3112 293.393C72.4672 293.418 72.6282 293.442 72.7989 293.457C73.1208 293.511 73.4525 293.554 73.7744 293.598C74.589 293.711 75.3987 293.803 76.2133 293.877C76.5986 293.916 76.9888 293.95 77.379 293.979L78.3204 294.052C78.8326 294.091 79.3398 294.121 79.8422 294.135C80.1544 294.135 80.4666 294.164 80.7885 294.174C81.0324 294.174 81.2763 294.174 81.5299 294.174C81.7836 294.174 82.1445 294.174 82.4518 294.174C82.8713 294.174 83.2907 294.174 83.7053 294.174H84.2663C84.6858 294.174 85.1052 294.174 85.5198 294.135H85.5491C85.8369 294.135 86.1295 294.135 86.4222 294.096C86.5034 294.101 86.5849 294.101 86.6661 294.096C86.91 294.096 87.1538 294.096 87.388 294.062H87.5587L89.1927 293.935C89.7292 293.886 90.2707 293.823 90.817 293.764L91.9291 293.633C96.4535 292.998 100.928 292.046 105.318 290.782C115.181 288.03 124.829 284.179 134.687 281.359C147.432 277.723 161.514 275.937 173.83 280.383V234.644H68.0725ZM173.805 89.8852V0.00486836C162.229 -0.120615 150.685 1.23406 139.452 4.03599C112.679 10.7659 88.6562 25.3629 68.0725 44.0056V89.8803H73.3794V91.9642H68.0725V162.963H173.805V91.9691H95.1678V89.8852H173.805ZM309.614 59.5249C302.99 59.2907 296.405 57.1921 290.45 53.9516C279.06 47.7536 269.963 38.1834 259.798 30.1065C238.678 13.2841 212.485 3.13314 185.614 0.614905V89.8852H336.553L336.929 89.4899L309.614 59.5249ZM323.364 57.0848L337.943 73.0921V52.8877C333.061 53.4929 328.783 54.9326 323.383 57.0652L323.364 57.0848ZM337.943 307.019V234.644H306.877C306.795 234.337 306.712 234.025 306.614 233.712C306.707 234.025 306.785 234.337 306.873 234.644H185.634V286.986C186.785 287.84 187.921 288.738 189.048 289.65C190.263 290.626 191.462 291.656 192.667 292.666L193.882 293.672C194.462 294.16 195.048 294.648 195.638 295.106C196.808 296.056 197.99 296.993 199.184 297.917C199.774 298.405 200.379 298.845 200.979 299.303C210.503 306.59 220.551 313.165 231.04 318.976C233.391 320.277 235.763 321.548 238.156 322.787C239.751 323.602 241.356 324.413 242.966 325.198C245.385 326.379 247.824 327.518 250.282 328.614C272.947 338.794 296.913 345.779 321.496 349.37C326.955 350.177 332.436 350.812 337.938 351.274V307.014H338.426L337.943 307.019ZM185.634 91.9691V162.963H337.963V91.9691H185.634ZM185.634 165.047V232.561H337.963V165.047H185.634ZM349.786 52.7999V75.3371L368.394 54.9082C362.229 53.9126 356.026 53.2017 349.786 52.7755V52.7999ZM349.786 165.071V232.561H497.945V165.047L349.786 165.071ZM497.403 312.378L497.925 234.644H349.786V352.05C359.329 352.451 368.887 352.337 378.418 351.708H378.584C383.136 351.422 387.668 351.005 392.178 350.459H392.28C416.342 347.657 439.87 341.375 462.128 331.811L497.403 312.378ZM526.513 176.164C525.957 174.851 525.377 173.548 524.787 172.26C523.684 169.82 522.518 167.448 521.319 165.076H509.759V232.561H538.985C538.971 213.449 534.137 193.928 526.528 176.139L526.513 176.164ZM509.759 234.669V301.529C517.992 293.633 524.948 284.599 529.957 274.272C535.981 261.837 538.737 248.373 538.961 234.659L509.759 234.669ZM509.759 145.399V162.968H520.236C517.066 156.92 513.574 151.047 509.773 145.374L509.759 145.399ZM409.279 66.045C408.508 65.7522 407.738 65.4545 406.962 65.1665C398.783 62.1443 390.424 59.631 381.935 57.6411L353.459 88.9092L352.913 89.4899L353.279 89.8901H454.626C440.511 80.1688 425.294 72.1563 409.294 66.0206L409.279 66.045ZM457.597 91.9935H351.864L349.786 93.8968V162.963H367.999H368.029H497.964V129.508C486.21 115.285 472.644 102.665 457.612 91.9691L457.597 91.9935Z" fill="#0BA4B2"/>
<path opacity="0.1" d="M56.2539 127.781V162.963H6.90674C6.90674 162.758 6.94088 162.548 6.95551 162.343C6.99941 161.782 7.04331 161.22 7.09209 160.664C7.14574 160.01 7.20427 159.351 7.26768 158.712C7.33109 158.073 7.39938 157.292 7.47255 156.584C7.54571 155.877 7.614 155.159 7.69692 154.451C7.77984 153.744 7.853 153.036 7.9408 152.333C8.0286 151.631 8.10664 150.918 8.19932 150.215C8.27248 149.63 8.35052 149.049 8.42856 148.463C8.54075 147.639 8.65781 146.809 8.78463 145.989C8.78463 145.867 8.81878 145.74 8.83829 145.623C9.72855 139.621 10.9416 133.672 12.4721 127.8L56.2539 127.781Z" fill="#0BA4B2"/>
<path opacity="0.1" d="M6.75066 165.051H56.254V232.561H10.3748C10.2528 233.254 10.1358 233.951 10.0089 234.649H56.254V289.094C56.171 289.069 56.0979 289.04 56.0198 289.011C54.7126 288.494 53.4152 287.947 52.1177 287.361L51.2885 286.986C49.9878 286.371 48.6871 285.72 47.3864 285.033C46.9328 284.794 46.4791 284.545 46.0304 284.292C38.8094 280.245 32.2496 275.116 26.5783 269.085C26.4125 268.924 26.2564 268.753 26.0906 268.597C25.3004 267.738 24.5248 266.869 23.7737 265.981L22.9445 265.005C22.0567 263.916 21.1983 262.799 20.3642 261.667C20.2422 261.501 20.1252 261.335 19.9984 261.179C16.6062 256.473 13.7896 251.377 11.6088 246.001C11.5405 245.84 11.482 245.664 11.4186 245.513C10.7487 243.788 10.1553 242.048 9.63823 240.291C9.41386 239.554 9.19925 238.827 9.01389 238.061C8.94561 237.836 8.88707 237.617 8.83342 237.397C6.06291 226.577 5.73611 215.338 5.73611 204.177C5.73611 202.874 5.73611 201.566 5.73611 200.273C5.73611 195.758 5.78977 191.215 5.86781 186.676C5.86781 185.5 5.91658 184.329 5.94097 183.148C6.00926 180.151 6.10681 177.155 6.23363 174.158C6.2629 173.324 6.30192 172.494 6.34582 171.664C6.34582 171.186 6.37021 170.708 6.41898 170.229C6.53605 168.492 6.6336 166.769 6.75066 165.051Z" fill="#0BA4B2"/>
<path opacity="0.1" d="M105.294 102.135V162.963H68.0725V102.135H73.3794V81.5399H95.1629V102.135H105.294Z" fill="#0BA4B2"/>
<path opacity="0.1" d="M105.294 165.047H68.0774V232.556H105.294V165.047Z" fill="#0BA4B2"/>
<path opacity="0.1" d="M68.0725 234.649H105.294V290.773C100.903 292.035 96.4291 292.986 91.9047 293.618L90.7926 293.755C90.2463 293.818 89.7049 293.872 89.1683 293.925C88.6318 293.979 88.0757 294.018 87.5343 294.052H87.3636C87.1295 294.052 86.8758 294.082 86.6466 294.086H86.3978C86.1051 294.086 85.8125 294.116 85.5198 294.125C85.1052 294.15 84.6906 294.155 84.2663 294.16C84.0858 294.16 83.9151 294.16 83.7346 294.16C83.3151 294.16 82.9005 294.16 82.481 294.16H81.5592C81.3104 294.16 81.0714 294.16 80.8129 294.16L79.8715 294.125C79.3837 294.125 78.857 294.072 78.3497 294.038L77.4132 293.969L76.2474 293.862C75.428 293.789 74.6134 293.696 73.8086 293.584L72.8331 293.447L72.3453 293.379C71.5307 293.252 70.7259 293.115 69.9065 292.959C69.3065 292.857 68.7114 292.73 68.1066 292.608L68.0725 234.649Z" fill="#0BA4B2"/>
<path opacity="0.1" d="M337.963 94.951H307.273V162.958H337.963V94.951Z" fill="#0BA4B2"/>
<path opacity="0.1" d="M337.968 165.047V232.561H185.634V203.44H266.773V220.619H307.273V165.047H337.968Z" fill="#0BA4B2"/>
<path opacity="0.1" d="M338.45 307.034H337.963V351.323C332.467 350.857 326.988 350.224 321.525 349.424C296.93 345.821 272.954 338.821 250.282 328.624C243.736 325.677 237.324 322.459 231.045 318.971C220.556 313.157 210.507 306.582 200.979 299.299C198.585 297.464 196.223 295.586 193.892 293.667C192.277 292.334 190.672 290.968 189.048 289.64C187.921 288.728 186.785 287.83 185.634 286.971V234.649H306.868C306.785 234.337 306.702 234.025 306.614 233.717C306.707 234.025 306.795 234.337 306.877 234.649H337.963V307.005C338.129 307.009 338.29 307.024 338.45 307.034Z" fill="#0BA4B2"/>
<path opacity="0.1" d="M418.005 89.8852H398.007V83.6678H406.972V65.147C407.749 65.4301 408.523 65.7213 409.293 66.0206V83.6678H418.005V89.8852Z" fill="#0BA4B2"/>
<path opacity="0.1" d="M466.186 162.963H368.009C368.009 162.963 368.009 162.963 368.043 162.987L367.999 162.963H349.786V94.9559H354.947V145.223H378.53V115.453H398.011V91.974H418.01V115.473H437.491V145.242H466.186V162.963Z" fill="#0BA4B2"/>
<path opacity="0.1" d="M349.786 165.047V232.561H466.186V165.047H349.786ZM497.784 312.031L497.945 258.592H466.186V234.679H349.786V352.05C359.329 352.451 368.887 352.337 378.418 351.708H378.584C383.136 351.422 387.668 351.005 392.178 350.459H392.28C416.342 347.657 439.87 341.375 462.128 331.811" fill="#0BA4B2"/>
<path opacity="0.1" d="M511.827 234.649H538.98C538.741 248.358 535.99 261.823 529.971 274.258C524.962 284.589 518.002 293.623 509.778 301.514V258.568H511.827V234.649Z" fill="#0BA4B2"/>
<path opacity="0.1" d="M538.995 232.561H511.827V176.139H526.528C534.137 193.928 538.971 213.449 538.995 232.561Z" fill="#0BA4B2"/>
<path opacity="0.1" d="M337.968 113.857H321.525V135.179H337.968V113.857Z" fill="#0BA4B2"/>
<path opacity="0.1" d="M337.968 158.053H321.525V162.963H337.968V158.053Z" fill="#0BA4B2"/>
<path opacity="0.1" d="M337.968 165.047H321.525V179.37H337.968V165.047Z" fill="#0BA4B2"/>
<path opacity="0.1" d="M337.968 202.249H321.525V223.571H337.968V202.249Z" fill="#0BA4B2"/>
<path opacity="0.1" d="M337.968 246.445H321.525V267.767H337.968V246.445Z" fill="#0BA4B2"/>
<path opacity="0.1" d="M337.963 307.005C338.129 307.005 338.29 307.005 338.45 307.034H337.963V311.987H321.525V290.641H337.963V307.005Z" fill="#0BA4B2"/>
<path opacity="0.1" d="M337.963 334.827V351.298C332.467 350.833 326.988 350.2 321.525 349.4V334.827H337.963Z" fill="#0BA4B2"/>
<path opacity="0.1" d="M256.101 230.994H185.634V232.561H256.101V230.994Z" fill="#0BA4B2"/>
<path opacity="0.1" d="M256.101 234.644H185.634V240.647H256.101V234.644Z" fill="#0BA4B2"/>
<path opacity="0.1" d="M256.101 260.325H185.634V269.978H256.101V260.325Z" fill="#0BA4B2"/>
<path opacity="0.1" d="M256.096 289.655V299.308H200.979C198.585 297.48 196.221 295.603 193.887 293.677C192.272 292.344 190.672 290.978 189.043 289.655H256.096Z" fill="#0BA4B2"/>
<path opacity="0.1" d="M256.096 318.981V328.624H250.277C243.738 325.673 237.327 322.454 231.045 318.966L256.096 318.981Z" fill="#0BA4B2"/>
<path opacity="0.1" d="M392.295 171.591H378.423V185.471H392.295V171.591Z" fill="#0BA4B2"/>
<path opacity="0.1" d="M91.9388 106.922H78.0668V120.802H91.9388V106.922Z" fill="#0BA4B2"/>
<path opacity="0.1" d="M91.9388 139.162H78.0668V153.041H91.9388V139.162Z" fill="#0BA4B2"/>
<path opacity="0.1" d="M91.9388 171.401H78.0668V185.28H91.9388V171.401Z" fill="#0BA4B2"/>
<path opacity="0.1" d="M91.9388 203.635H78.0668V217.515H91.9388V203.635Z" fill="#0BA4B2"/>
<path opacity="0.1" d="M91.9388 235.874H78.0668V249.754H91.9388V235.874Z" fill="#0BA4B2"/>
<path opacity="0.1" d="M91.9388 268.114H78.0668V281.993H91.9388V268.114Z" fill="#0BA4B2"/>
<path opacity="0.1" d="M445.252 171.591H431.379V185.471H445.252V171.591Z" fill="#0BA4B2"/>
<path opacity="0.1" d="M392.295 205.826H378.423V219.706H392.295V205.826Z" fill="#0BA4B2"/>
<path opacity="0.1" d="M445.252 205.826H431.379V219.706H445.252V205.826Z" fill="#0BA4B2"/>
<path opacity="0.1" d="M392.295 240.057H378.423V253.936H392.295V240.057Z" fill="#0BA4B2"/>
<path opacity="0.1" d="M445.252 240.057H431.379V253.936H445.252V240.057Z" fill="#0BA4B2"/>
<path opacity="0.1" d="M392.295 274.292H378.423V288.171H392.295V274.292Z" fill="#0BA4B2"/>
<path opacity="0.1" d="M445.252 274.292H431.379V288.171H445.252V274.292Z" fill="#0BA4B2"/>
<path opacity="0.1" d="M392.295 308.527H378.423V322.407H392.295V308.527Z" fill="#0BA4B2"/>
<path opacity="0.1" d="M445.252 308.527H431.379V322.407H445.252V308.527Z" fill="#0BA4B2"/>
<path opacity="0.1" d="M378.423 351.708V342.758H392.29V350.434L378.423 351.708Z" fill="#0BA4B2"/>
<path opacity="0.1" d="M8.77977 145.613V153.554H56.254V145.613H8.77977ZM13.5111 153.056H9.63824V146.101H13.5404L13.5111 153.056ZM18.2375 153.056H14.3354V146.101H18.2375V153.056ZM22.9542 153.056H19.0521V146.101H22.9542V153.056ZM27.6807 153.056H23.7834V146.101H27.6855L27.6807 153.056ZM32.4022 153.056H28.5001V146.101H32.4022V153.056ZM37.1287 153.056H33.2266V146.101H37.1287V153.056ZM41.8551 153.056H37.953V146.101H41.8551V153.056ZM46.5767 153.056H42.6746V146.101H46.5767V153.056ZM51.2983 153.056H47.3961V146.101H51.2983V153.056ZM56.0198 153.056H52.1177V146.101H56.0198V153.056Z" fill="#0BA4B2"/>
<path opacity="0.1" d="M8.77977 168.717V176.657H56.254V168.717H8.77977ZM13.5111 176.154H9.63824V169.219H13.5404L13.5111 176.154ZM18.2375 176.154H14.3354V169.219H18.2375V176.154ZM22.9542 176.154H19.0521V169.219H22.9542V176.154ZM27.6807 176.154H23.7834V169.219H27.6855L27.6807 176.154ZM32.4022 176.154H28.5001V169.219H32.4022V176.154ZM37.1287 176.154H33.2266V169.219H37.1287V176.154ZM41.8551 176.154H37.953V169.219H41.8551V176.154ZM46.5767 176.154H42.6746V169.219H46.5767V176.154ZM51.2983 176.154H47.3961V169.219H51.2983V176.154ZM56.0198 176.154H52.1177V169.219H56.0198V176.154Z" fill="#0BA4B2"/>
<path opacity="0.1" d="M8.77977 191.83V199.785H56.254V191.83H8.77977ZM13.5111 199.267H9.63824V192.327H13.5404L13.5111 199.267ZM18.2375 199.267H14.3354V192.327H18.2375V199.267ZM22.9542 199.267H19.0521V192.327H22.9542V199.267ZM27.6807 199.267H23.7834V192.327H27.6855L27.6807 199.267ZM32.4022 199.267H28.5001V192.327H32.4022V199.267ZM37.1287 199.267H33.2266V192.327H37.1287V199.267ZM41.8551 199.267H37.953V192.327H41.8551V199.267ZM46.5767 199.267H42.6746V192.327H46.5767V199.267ZM51.2983 199.267H47.3961V192.327H51.2983V199.267ZM56.0198 199.267H52.1177V192.327H56.0198V199.267Z" fill="#0BA4B2"/>
<path opacity="0.1" d="M8.77977 214.943V222.873H56.254V214.943H8.77977ZM13.5111 222.38H9.63824V215.436H13.5404L13.5111 222.38ZM18.2375 222.38H14.3354V215.436H18.2375V222.38ZM22.9542 222.38H19.0521V215.436H22.9542V222.38ZM27.6807 222.38H23.7834V215.436H27.6855L27.6807 222.38ZM32.4022 222.38H28.5001V215.436H32.4022V222.38ZM37.1287 222.38H33.2266V215.436H37.1287V222.38ZM41.8551 222.38H37.953V215.436H41.8551V222.38ZM46.5767 222.38H42.6746V215.436H46.5767V222.38ZM51.2983 222.38H47.3961V215.436H51.2983V222.38ZM56.0198 222.38H52.1177V215.436H56.0198V222.38Z" fill="#0BA4B2"/>
<path opacity="0.1" d="M8.98462 238.051C9.17484 238.798 9.38946 239.544 9.61383 240.281V238.549H13.516V245.488H11.4283C11.4917 245.65 11.5551 245.825 11.6185 245.977H56.2539V238.051H8.98462ZM18.2522 245.488H14.35V238.549H18.2522V245.488ZM22.9688 245.488H19.0667V238.549H22.9688V245.488ZM27.6953 245.488H23.7834V238.549H27.6855L27.6953 245.488ZM32.4168 245.488H28.5147V238.549H32.4168V245.488ZM37.1433 245.488H33.2412V238.549H37.1433V245.488ZM41.8697 245.488H37.9676V238.549H41.8697V245.488ZM46.5913 245.488H42.6892V238.549H46.5913V245.488ZM51.3129 245.488H47.4108V238.549H51.3129V245.488ZM56.0344 245.488H52.1323V238.549H56.0344V245.488Z" fill="#0BA4B2"/>
<path opacity="0.1" d="M20.0081 261.164C20.1301 261.32 20.2471 261.496 20.3739 261.652H22.9542V264.985C23.2322 265.317 23.5054 265.649 23.7883 265.961V261.632H27.6904V268.597H26.1101C26.2661 268.758 26.4173 268.928 26.5978 269.085H56.2686V261.164H20.0081ZM32.4022 268.597H28.5001V261.662H32.4022V268.597ZM37.1287 268.597H33.2265V261.662H37.1287V268.597ZM41.8551 268.597H37.953V261.662H41.8551V268.597ZM46.5767 268.597H42.6746V261.662H46.5767V268.597ZM51.2982 268.597H47.3961V261.662H51.2982V268.597ZM56.0198 268.597H52.1177V261.662H56.0198V268.597Z" fill="#0BA4B2"/>
<path opacity="0.1" d="M46.0499 284.272C46.4938 284.526 46.9474 284.76 47.4059 285.014V284.77H51.308V286.966L52.1372 287.352V284.77H56.0393V288.991C56.1141 289.029 56.1926 289.058 56.2734 289.079V284.272H46.0499Z" fill="#0BA4B2"/>
<path opacity="0.1" d="M368.009 162.963H368.038H368.009ZM337.963 307H338.45H337.963ZM306.614 233.712C306.707 234.025 306.785 234.337 306.873 234.644C306.795 234.337 306.712 234.025 306.614 233.712ZM368.009 162.948H368.038H368.009ZM73.3989 89.8705V91.9544H95.1874V89.8705H73.3989ZM337.963 307H338.45H337.963ZM306.614 233.712C306.707 234.025 306.785 234.337 306.873 234.644C306.795 234.337 306.712 234.025 306.614 233.712ZM368.009 162.948H368.038H368.009ZM337.963 306.985H338.45H337.963ZM306.614 233.712C306.707 234.025 306.785 234.337 306.873 234.644C306.795 234.337 306.712 234.025 306.614 233.712Z" fill="#0BA4B2"/>
<path d="M225.152 185.29C225.152 185.29 223.231 185.022 223.231 182.22C223.231 179.419 221.855 174.187 221.855 174.187C221.855 174.163 220.665 165.076 219.021 163.631C217.377 162.187 215.265 153.705 215.265 153.705C215.265 153.705 214.904 149.103 214.168 148.112C213.431 147.121 212.436 144.696 210.968 141.236C209.5 137.776 203.379 135.379 203.379 135.379C203.379 135.379 192.311 128.957 189.175 126.863C188.89 126.691 188.623 126.49 188.38 126.263C187.833 125.546 185.453 125.531 185.453 125.531C185.204 123.959 184.965 122.154 184.887 120.519C184.887 120.343 184.887 120.167 184.863 119.992C188.36 117.923 190.994 114.662 192.282 110.807C192.34 110.622 192.389 110.426 192.443 110.241C192.652 110.172 192.845 110.06 193.009 109.912C193.173 109.764 193.304 109.584 193.394 109.382C193.677 108.752 193.682 108.016 194.033 107.43C194.443 106.737 195.223 106.366 195.838 105.844C197.389 104.526 197.789 102.306 197.716 100.285C197.667 98.6502 197.403 97.0007 197.506 95.3756L197.535 94.9656C197.564 94.7216 197.599 94.4776 197.642 94.2433C197.881 93.033 198.403 91.891 198.696 90.6905C198.989 89.4899 199.018 88.1381 198.335 87.1035C197.335 85.5857 195.252 85.2831 193.423 85.1269C191.35 84.9513 189.497 85.1806 188.17 83.4579C187.549 82.5575 186.851 81.7132 186.082 80.9348C185.809 80.681 183.156 79.0607 183.156 78.9534C180.566 77.7533 177.631 77.528 174.888 78.3189C173.513 78.7191 172.215 79.3731 170.82 79.7001C167.811 80.4126 164.348 79.6415 161.792 81.3642C160.367 82.3403 159.514 83.8922 158.714 85.4051C158.064 86.6512 157.403 87.8957 156.734 89.1385C155.656 91.1834 154.558 93.2624 154.105 95.5268C154.009 96.0196 153.95 96.5188 153.929 97.0202V97.0446C153.929 97.2252 153.929 97.4058 153.929 97.5863V97.8157C153.929 97.9865 153.929 98.1524 153.958 98.3037C153.987 98.455 153.983 98.5038 153.997 98.6063C154.012 98.7088 154.036 98.9382 154.065 99.0943C154.095 99.2505 154.153 99.5238 154.212 99.7385C154.236 99.8313 154.27 99.9191 154.3 100.007C154.348 100.173 154.407 100.334 154.47 100.495C154.504 100.578 154.539 100.666 154.578 100.749C154.651 100.92 154.739 101.086 154.826 101.237C154.865 101.305 154.895 101.369 154.934 101.432C155.07 101.659 155.22 101.877 155.382 102.086C156.426 103.389 157.963 104.219 159.099 105.439C159.099 105.488 159.099 105.536 159.099 105.58C159.099 105.717 159.099 105.849 159.099 105.985C159.16 108.706 159.883 111.371 161.208 113.749C162.532 116.126 164.417 118.144 166.699 119.626C166.699 119.811 166.723 120.002 166.733 120.187C166.828 121.636 166.81 123.089 166.679 124.535C166.48 124.301 166.232 124.115 165.952 123.99C165.671 123.865 165.366 123.804 165.06 123.813C164.85 123.803 164.64 123.821 164.435 123.867L164.391 123.833V123.876C163.318 124.14 161.997 125.258 160.733 128.435C160.733 128.435 156.89 132.768 153.963 132.588C151.036 132.407 143.627 137.097 143.627 137.097C143.627 137.097 136.399 141.792 134.848 146.575C133.981 149.287 132.941 151.941 131.736 154.52L122.8 172.943L121.151 187.559C121.151 187.559 122.063 194.06 121.883 195.051C121.702 196.041 125.634 204.977 125.634 204.977C125.634 204.977 138.623 227.812 143.93 228.983L144.31 228.715C144.537 228.834 144.778 228.924 145.027 228.983L146.12 228.212C146.185 229.072 146.158 229.936 146.037 230.789C145.305 233.044 146.31 247.758 147.588 250.642C148.866 253.526 148.412 291.344 148.412 291.344L148.232 294.682C148.232 294.682 148.232 294.789 148.276 294.975L148.232 295.765L148.364 295.834C148.5 296.892 148.456 297.967 148.232 299.011C147.773 300.475 147.588 304.613 147.588 304.613C147.588 304.613 143.935 327.98 145.666 332.675C147.398 337.37 148.871 342.514 148.871 342.514C148.871 342.514 150.7 348.37 148.959 349.37C147.217 350.371 142.266 352.05 143.286 354.49C144.213 356.744 147.729 362.786 148.251 363.67L148.207 364.133L147.49 371.908C147.607 372.934 147.885 373.936 148.315 374.875C149.1 376.568 150.627 378.325 153.529 378.135C154.017 378.101 154.583 378.042 155.129 377.969C160.441 377.256 166.982 374.885 166.982 374.885C166.642 374.669 166.331 374.411 166.055 374.118C165.794 373.865 165.587 373.562 165.447 373.226C165.307 372.891 165.236 372.53 165.24 372.166C165.318 370.751 162.67 364.006 162.011 362.347C161.909 362.108 161.855 361.971 161.855 361.971C161.855 361.971 167.894 355.656 166.889 350.058C166.889 350.058 160.206 346.154 162.406 344.012C164.606 341.869 168.537 335.715 168.537 335.715C168.537 335.715 168.718 312.705 168.537 309.269C168.349 306.884 168.462 304.485 168.874 302.129C168.947 301.773 169.035 301.426 169.128 301.085C172.17 301.539 175.241 301.772 178.317 301.783C179.439 301.783 180.58 301.783 181.732 301.714C181.732 302.04 181.746 302.391 181.775 302.768C182.029 308.469 182.502 318.463 182.888 322.177C183.434 327.502 186.453 341.85 186.453 341.85C186.453 341.85 180.693 345.549 187.458 354.665C187.458 354.665 187.458 357.969 187.009 358.448C186.53 360.011 186.144 361.602 185.853 363.211C185.57 364.929 185.453 366.666 185.912 367.569C187.009 369.726 193.594 369.55 193.594 369.55L193.755 369.521C194.998 369.393 196.254 369.512 197.451 369.873C198.647 370.234 199.76 370.83 200.725 371.624C203.227 373.635 212.724 372.752 217.865 372.113C219.88 371.859 221.226 371.624 221.226 371.624C221.291 371.396 221.314 371.158 221.294 370.922C221.241 369.658 220.25 366.886 213.539 364.411C213.539 364.411 207.227 360.166 207.315 356.466H207.183H206.451C206.983 356.437 207.325 356.466 207.325 356.466C207.325 356.466 204.852 347.438 205.861 346.706C206.871 345.974 203.847 335.969 203.847 335.969C203.847 335.969 202.115 319.181 202.023 318.005C202.026 316.995 202.179 315.992 202.476 315.028L202.023 305.824C202.023 305.824 201.935 302.764 202.023 301.768C202.008 300.904 201.938 300.042 201.813 299.186C201.769 298.845 201.725 298.488 201.676 298.137C204.042 297.537 205.578 296.98 205.578 296.98L205.305 264.941C207.315 261.037 207.686 252.472 207.676 246.396C207.676 242.492 207.5 239.603 207.5 239.603L210.246 235.118C210.246 235.118 210.88 229.75 209.876 228.573C209.432 228.041 209.632 227.49 209.998 227.036C210.188 226.885 210.388 226.748 210.597 226.626C210.597 226.626 210.568 226.582 210.534 226.519C210.726 226.358 210.93 226.213 211.144 226.084C211.144 226.084 210.168 224.572 211.041 223.932C211.861 224.489 212.592 224.908 213.148 225.25C213.109 225.606 213.07 225.811 213.07 225.811L213.305 225.323C213.841 225.626 214.168 225.811 214.168 225.811C214.168 225.811 218.47 217.236 218.377 215.972C218.285 214.708 221.304 209.384 221.304 209.384C221.304 209.384 221.67 206.588 223.318 205.416C224.967 204.245 224.596 195.758 224.596 195.758C224.596 195.758 225.055 191.337 226.152 189.531C227.25 187.725 225.152 185.29 225.152 185.29ZM142.837 181.527L142.92 183.572C142.432 182.786 142.081 182.22 142.081 182.22L142.837 181.527Z" fill="url(#paint0_linear_116_487)"/>
<path d="M214.402 222.107L213.348 226.597C213.348 226.597 204.91 222.288 203.388 216.812C201.866 211.336 205.934 209.257 205.934 209.257L213.797 212.59L214.402 222.107Z" fill="white"/>
<path opacity="0.1" d="M214.402 222.107L213.348 226.597C213.348 226.597 204.91 222.288 203.388 216.812C201.866 211.336 205.934 209.257 205.934 209.257L213.797 212.59L214.402 222.107Z" fill="black"/>
<path d="M167.045 374.914C167.045 374.914 159.241 377.783 153.875 378.145C151.027 378.335 149.529 376.588 148.759 374.904C148.338 373.968 148.066 372.972 147.954 371.951L148.651 364.216L149.022 360.097L160.421 357.135L162.036 362.074L162.187 362.45C162.836 364.099 165.435 370.809 165.357 372.21C165.354 372.569 165.423 372.924 165.561 373.256C165.698 373.587 165.901 373.887 166.157 374.138C166.419 374.433 166.717 374.694 167.045 374.914Z" fill="white"/>
<path d="M220.353 370.98C220.372 371.215 220.349 371.452 220.285 371.678C220.285 371.678 203.593 374.465 200.179 371.678C199.216 370.864 198.094 370.26 196.884 369.906C195.675 369.551 194.405 369.453 193.155 369.619C193.155 369.619 186.697 369.794 185.619 367.667C185.17 366.773 185.287 365.041 185.565 363.333C185.849 361.732 186.227 360.15 186.697 358.594L186.956 358.389L188.492 357.154L206.481 356.622H206.617C206.53 360.302 212.724 364.524 212.724 364.524C219.304 366.964 220.275 369.721 220.353 370.98Z" fill="white"/>
<path opacity="0.1" d="M220.353 370.98C220.37 371.215 220.345 371.452 220.28 371.678C220.28 371.678 203.593 374.465 200.179 371.678C199.217 370.865 198.095 370.261 196.887 369.907C195.678 369.552 194.409 369.454 193.16 369.619C193.16 369.619 186.697 369.794 185.624 367.667C185.175 366.769 185.287 365.041 185.565 363.333C188.053 363.582 191.979 364.202 193.521 365.68C195.852 367.93 199.803 370.175 202.227 370.351C204.125 370.473 215.475 370.834 220.353 370.98Z" fill="black"/>
<path opacity="0.1" d="M167.045 374.914C167.045 374.914 159.241 377.783 153.875 378.145C151.027 378.335 149.529 376.588 148.764 374.899C150.749 375.568 153.505 376.271 154.953 375.626C156.67 374.865 162.757 374.372 166.172 374.162C166.432 374.447 166.725 374.699 167.045 374.914Z" fill="black"/>
<path d="M178.624 143.661C172.186 141.158 163.904 132.885 165.972 129.02C166.431 128.045 166.704 126.992 166.777 125.916C166.91 124.456 166.929 122.988 166.835 121.524C166.69 119.127 166.402 116.742 165.972 114.379C165.972 114.379 186.073 114.833 184.902 117.796C184.561 118.664 184.507 120.172 184.6 121.861C184.692 123.549 184.936 125.458 185.19 127.073C185.541 129.289 185.892 130.977 185.892 130.977C185.892 130.977 184.663 132.7 183.941 132.793C183.219 132.885 187.863 147.229 178.624 143.661Z" fill="#CF6F80"/>
<path opacity="0.1" d="M162.172 362.45L162.021 362.615C156.012 355.344 148.744 364.407 148.744 364.407L148.637 364.216L149.007 360.097L160.406 357.135L162.021 362.074L162.172 362.45Z" fill="black"/>
<path opacity="0.1" d="M206.622 357.135C206.622 357.135 202.232 357.042 199.891 359.111C197.55 361.181 186.234 359.56 186.721 359.111C186.866 358.889 186.953 358.634 186.975 358.37L188.511 357.135L206.5 356.603C206.569 356.93 206.622 357.135 206.622 357.135Z" fill="black"/>
<path d="M169.65 300.031C169.323 300.839 169.074 301.678 168.908 302.534C168.501 304.88 168.388 307.267 168.572 309.64C168.752 313.056 168.572 335.95 168.572 335.95C168.572 335.95 164.713 342.055 162.562 344.207C160.411 346.359 166.952 350.224 166.952 350.224C167.928 355.788 162.016 362.074 162.016 362.074C156.007 354.802 148.739 363.87 148.739 363.87C148.739 363.87 144.788 357.037 143.803 354.597C142.818 352.157 147.661 350.468 149.363 349.478C151.066 348.487 149.281 342.645 149.281 342.645C149.281 342.645 147.842 337.526 146.134 332.855C144.427 328.185 148.017 304.935 148.017 304.935C148.017 304.935 148.203 300.807 148.646 299.367C148.87 298.328 148.915 297.258 148.778 296.204C148.749 295.848 148.715 295.551 148.69 295.35C148.666 295.15 148.646 295.058 148.646 295.058L148.715 294.94L151.154 290.392C151.154 290.392 170.82 297.166 169.65 300.031Z" fill="#0BA4B2"/>
<path d="M206.622 356.598C206.622 356.598 202.232 356.505 199.891 358.55C197.55 360.595 186.234 358.999 186.721 358.55C187.209 358.101 187.17 354.778 187.17 354.778C180.532 345.71 186.195 342.03 186.195 342.03C186.195 342.03 183.229 327.756 182.692 322.46C182.317 318.761 181.854 308.82 181.605 303.144C181.497 300.704 181.434 299.025 181.434 299.025L186.858 297.932L187.555 297.791L200.637 295.165C200.637 295.165 200.998 297.605 201.242 299.601C201.364 300.453 201.432 301.312 201.447 302.173C201.359 303.149 201.447 306.204 201.447 306.204L201.891 315.364C201.601 316.325 201.451 317.323 201.447 318.327C201.535 319.493 203.237 336.194 203.237 336.194C203.237 336.194 206.198 346.159 205.188 346.877C204.178 347.594 206.622 356.598 206.622 356.598Z" fill="#0BA4B2"/>
<path opacity="0.1" d="M184.902 117.796C184.561 118.664 184.507 120.172 184.6 121.861C181.907 123.483 178.812 124.312 175.67 124.254C172.527 124.195 169.465 123.251 166.835 121.529C166.69 119.131 166.402 116.743 165.972 114.379C165.972 114.379 186.073 114.824 184.902 117.796Z" fill="black"/>
<path d="M192.672 107.01C192.676 108.769 192.399 110.517 191.853 112.188C190.631 115.933 188.125 119.125 184.778 121.2C181.431 123.276 177.459 124.1 173.563 123.528C169.667 122.957 166.099 121.025 163.489 118.076C160.879 115.126 159.395 111.349 159.299 107.41C159.299 107.274 159.299 107.147 159.299 107.01C159.261 104.793 159.665 102.591 160.487 100.532C161.308 98.473 162.532 96.5982 164.085 95.0171C165.639 93.436 167.491 92.1803 169.535 91.323C171.578 90.4658 173.772 90.0244 175.988 90.0244C178.204 90.0244 180.398 90.4658 182.441 91.323C184.485 92.1803 186.338 93.436 187.891 95.0171C189.445 96.5982 190.668 98.473 191.49 100.532C192.311 102.591 192.715 104.793 192.677 107.01H192.672Z" fill="#CF6F80"/>
<path opacity="0.1" d="M178.624 143.661C172.186 141.158 163.904 132.885 165.972 129.02C166.431 128.045 166.704 126.992 166.777 125.916L175.591 133.164L181.044 137.639L185.19 127.078C185.541 129.294 185.892 130.982 185.892 130.982C185.892 130.982 184.663 132.705 183.941 132.798C183.219 132.89 187.863 147.229 178.624 143.661Z" fill="black"/>
<path d="M201.418 175.691L194.057 299.406L184.458 300.035L159.602 228.3L163.679 143.134L164.538 125.14L175.591 134.223L181.049 138.698L185.317 127.83L193.253 134.75L201.418 175.691Z" fill="#0BA4B2"/>
<path opacity="0.1" d="M169.65 300.031C169.323 300.839 169.074 301.678 168.908 302.534C161.923 301.455 155.14 299.335 148.783 296.243L148.651 296.175L148.695 295.389L148.72 294.979L151.158 290.431C151.158 290.431 170.82 297.166 169.65 300.031Z" fill="black"/>
<path opacity="0.1" d="M186.97 302.554C185.185 302.858 183.384 303.063 181.575 303.169C181.468 300.729 181.405 299.05 181.405 299.05L186.829 297.956L186.97 302.554Z" fill="black"/>
<path opacity="0.1" d="M201.213 299.626C197.745 300.528 192.389 301.543 187.594 300.909L187.526 297.815L200.608 295.189C200.608 295.189 200.969 297.605 201.213 299.626Z" fill="black"/>
<path opacity="0.1" d="M187.507 301.475C167.508 304.891 149.193 295.097 149.193 295.097L149.368 291.778C149.368 291.778 149.822 254.156 148.563 251.272C147.305 248.387 146.325 233.761 147.037 231.516C147.749 229.271 144.437 195.607 144.437 195.607L143.9 181.942L124.263 173.982L133.043 155.672C134.229 153.104 135.249 150.464 136.096 147.765C137.623 143.012 144.71 138.342 144.71 138.342C144.71 138.342 151.978 133.676 154.851 133.852C157.724 134.027 161.489 129.723 161.489 129.723C164.27 122.632 166.786 125.843 166.786 125.843C166.786 126.18 166.786 125.843 166.65 126.892C165.674 134.677 182.424 159.273 182.663 159.708L184.258 198.584L185.873 247.782L187.507 301.475Z" fill="black"/>
<path d="M186.97 301.475C166.972 304.891 148.651 295.097 148.651 295.097L148.832 291.778C148.832 291.778 149.285 254.156 148.022 251.272C146.759 248.387 145.783 233.761 146.5 231.516C147.217 229.271 143.9 195.607 143.9 195.607L143.359 181.942L123.712 173.953L132.492 155.642C133.675 153.074 134.695 150.433 135.545 147.736C137.067 142.983 144.159 138.312 144.159 138.312C144.159 138.312 151.427 133.647 154.295 133.822C157.163 133.998 160.933 129.694 160.933 129.694C163.718 122.603 166.786 125.814 166.786 125.814C166.786 126.151 166.494 126.302 166.65 126.863C168.796 134.413 181.888 159.244 182.127 159.678L183.741 198.555L185.356 247.753L186.97 301.475Z" fill="white"/>
<path opacity="0.1" d="M181.58 160.786C179.429 159.888 168.035 146.872 168.035 146.872V143.91C167.62 142.934 165.157 143.529 163.157 144.213L164.016 126.219L164.991 127.029C167.128 134.574 181.332 160.352 181.58 160.786Z" fill="black"/>
<path d="M182.122 159.708C179.966 158.81 168.572 145.794 168.572 145.794V142.831C168.157 141.855 165.694 142.451 163.694 143.134L164.557 125.14L165.533 125.951C167.674 133.496 181.883 159.278 182.122 159.708Z" fill="white"/>
<path opacity="0.1" d="M149.193 224.62C149.461 224.62 163.099 223.186 163.099 223.186C163.099 223.186 171.357 239.432 170.815 243.385C170.274 247.338 169.294 250.837 165.972 250.217C162.65 249.598 148.095 250.706 148.095 250.706L149.193 224.62Z" fill="black"/>
<path d="M148.651 223.542C148.92 223.542 162.558 222.107 162.558 222.107C162.558 222.107 170.81 238.358 170.274 242.307C169.737 246.255 168.747 249.759 165.43 249.139C162.114 248.519 147.554 249.627 147.554 249.627L148.651 223.542Z" fill="white"/>
<path d="M158.929 215.914C158.929 215.914 171.445 222.644 171.713 224.698C171.981 226.753 165.343 223.8 163.909 223.444C162.965 223.217 162.004 223.066 161.036 222.995L151.471 223.254L158.929 215.914Z" fill="#CF6F80"/>
<path opacity="0.1" d="M178.088 161.626C178.815 161.626 179.405 161.036 179.405 160.308C179.405 159.58 178.815 158.99 178.088 158.99C177.361 158.99 176.771 159.58 176.771 160.308C176.771 161.036 177.361 161.626 178.088 161.626Z" fill="black"/>
<path d="M178.088 161.089C178.815 161.089 179.405 160.499 179.405 159.771C179.405 159.043 178.815 158.453 178.088 158.453C177.361 158.453 176.771 159.043 176.771 159.771C176.771 160.499 177.361 161.089 178.088 161.089Z" fill="#3F3D56"/>
<path opacity="0.1" d="M180.512 218.666C181.239 218.666 181.829 218.076 181.829 217.349C181.829 216.621 181.239 216.031 180.512 216.031C179.785 216.031 179.195 216.621 179.195 217.349C179.195 218.076 179.785 218.666 180.512 218.666Z" fill="black"/>
<path d="M180.512 218.125C181.239 218.125 181.829 217.535 181.829 216.807C181.829 216.079 181.239 215.489 180.512 215.489C179.785 215.489 179.195 216.079 179.195 216.807C179.195 217.535 179.785 218.125 180.512 218.125Z" fill="#3F3D56"/>
<path opacity="0.1" d="M179.4 190.146C180.127 190.146 180.717 189.556 180.717 188.828C180.717 188.101 180.127 187.511 179.4 187.511C178.673 187.511 178.083 188.101 178.083 188.828C178.083 189.556 178.673 190.146 179.4 190.146Z" fill="black"/>
<path d="M179.4 189.609C180.127 189.609 180.717 189.019 180.717 188.291C180.717 187.564 180.127 186.974 179.4 186.974C178.673 186.974 178.083 187.564 178.083 188.291C178.083 189.019 178.673 189.609 179.4 189.609Z" fill="#3F3D56"/>
<path d="M209.759 222.722C209.759 222.722 210.656 224.069 209.759 224.698C208.861 225.328 209.846 226.851 209.846 226.851C209.846 226.851 207.607 228.163 208.593 229.344C209.578 230.525 208.954 235.86 208.954 235.86L206.261 240.32C206.261 240.32 206.422 243.195 206.432 247.079C206.432 253.141 206.076 261.662 204.105 265.546L204.378 297.42C204.378 297.42 194.95 300.865 187.058 299.816L185.887 248.67C185.887 248.67 187.594 219.667 188.224 214.103C188.592 211.215 188.742 208.303 188.672 205.392C188.672 205.392 188.404 196.686 187.502 192.645C187.502 192.645 186.526 175.139 186.429 170.293C186.385 167.975 186.507 161.211 186.643 154.778C186.795 147.746 186.965 141.114 186.965 141.114L185.185 127.019C185.185 127.019 186.965 126.839 187.502 127.556C187.742 127.781 188.003 127.982 188.282 128.156C191.355 130.235 202.213 136.629 202.213 136.629C202.213 136.629 208.222 139.02 209.661 142.446C211.1 145.872 212.1 148.302 212.797 149.278C213.495 150.254 213.875 154.842 213.875 154.842C213.875 154.842 215.943 163.285 217.558 164.715C219.172 166.145 220.353 175.242 220.353 175.242L206.086 186.466C206.086 186.466 204.832 205.138 204.564 205.86C204.296 206.583 209.759 222.722 209.759 222.722Z" fill="white"/>
<path d="M210.3 222.722C210.3 222.722 211.193 224.069 210.3 224.698C209.407 225.328 210.383 226.851 210.383 226.851C210.383 226.851 208.159 228.178 209.134 229.359C210.11 230.54 209.495 235.874 209.495 235.874L206.803 240.335C206.803 240.335 206.964 243.209 206.978 247.094C206.978 253.155 206.622 261.676 204.652 265.561L204.92 297.434C204.92 297.434 195.477 300.88 187.594 299.831L186.429 248.685C186.429 248.685 188.136 219.681 188.765 214.118C189.134 211.23 189.282 208.317 189.209 205.407C189.209 205.407 188.941 196.7 188.043 192.659C188.043 192.659 187.068 175.154 186.965 170.308C186.921 167.989 187.048 161.225 187.18 154.793C187.331 147.761 187.502 141.128 187.502 141.128L185.151 126.844C185.151 126.844 187.502 126.844 188.043 127.571C188.281 127.798 188.543 127.999 188.824 128.171C191.897 130.25 202.759 136.643 202.759 136.643C202.759 136.643 208.764 139.035 210.202 142.461C211.641 145.887 212.641 148.317 213.344 149.293C214.046 150.269 214.417 154.857 214.417 154.857C214.417 154.857 216.485 163.299 218.099 164.729C219.714 166.159 220.88 175.237 220.88 175.237L206.612 186.461C206.612 186.461 205.359 205.133 205.086 205.856C204.813 206.578 210.3 222.722 210.3 222.722Z" fill="white"/>
<path opacity="0.1" d="M193.214 145.272L194.501 149.029L187.721 155.862C187.872 148.834 188.043 142.197 188.043 142.197L185.692 127.912C185.692 127.912 188.043 127.912 188.585 128.64C188.822 128.866 189.084 129.066 189.365 129.235L195.13 145.877L193.214 145.272Z" fill="black"/>
<path d="M192.672 144.193L193.965 147.951L187.185 154.783C187.336 147.751 187.507 141.119 187.507 141.119L185.151 126.834C185.151 126.834 187.507 126.834 188.043 127.561C188.282 127.787 188.544 127.988 188.824 128.161L194.594 144.798L192.672 144.193Z" fill="white"/>
<path opacity="0.1" d="M192.672 107.01C192.676 108.769 192.399 110.517 191.853 112.188C191.761 112.203 191.666 112.198 191.576 112.176C191.485 112.153 191.4 112.112 191.326 112.056C191.199 107.664 189.038 103.54 186.38 100.031C185.634 98.9719 184.729 98.0337 183.697 97.2496C182.654 96.4659 181.357 96.0988 180.059 96.2199C178.595 96.42 177.303 97.4155 175.825 97.5424C173.874 97.7035 172.127 96.3516 170.191 96.2833C169.404 96.2908 168.627 96.4662 167.913 96.7977C167.199 97.1293 166.564 97.6095 166.05 98.2061C165.033 99.4103 164.277 100.813 163.831 102.325C163.064 104.618 162.646 107.013 162.592 109.431C162.567 110.797 162.436 112.51 161.167 113.008C161.263 112.003 161.149 110.989 160.832 110.031C160.516 109.072 160.004 108.19 159.329 107.44L159.299 107.41C159.299 107.274 159.299 107.147 159.299 107.01C159.261 104.793 159.665 102.591 160.487 100.532C161.308 98.473 162.532 96.5982 164.085 95.0171C165.639 93.436 167.491 92.1803 169.535 91.323C171.578 90.4658 173.772 90.0244 175.988 90.0244C178.204 90.0244 180.398 90.4658 182.441 91.323C184.485 92.1803 186.338 93.436 187.891 95.0171C189.445 96.5982 190.668 98.473 191.49 100.532C192.311 102.591 192.715 104.793 192.677 107.01H192.672Z" fill="black"/>
<path d="M182.897 80.4955C180.363 79.3026 177.48 79.077 174.791 79.8611C173.44 80.2613 172.166 80.9104 170.796 81.2373C167.869 81.945 164.455 81.1788 161.943 82.8918C160.548 83.8678 159.709 85.41 158.929 86.9082L156.977 90.627C155.914 92.6621 154.841 94.7313 154.397 96.9714C153.953 99.2114 154.222 101.72 155.641 103.521C156.675 104.834 158.202 105.658 159.324 106.893C159.996 107.644 160.506 108.526 160.821 109.483C161.137 110.441 161.251 111.453 161.158 112.457C162.431 111.969 162.553 110.251 162.582 108.884C162.636 106.467 163.054 104.071 163.821 101.778C164.266 100.266 165.022 98.863 166.04 97.6595C166.554 97.0633 167.19 96.5835 167.904 96.252C168.618 95.9205 169.394 95.7448 170.181 95.7367C172.132 95.805 173.883 97.152 175.815 96.9909C177.278 96.8689 178.576 95.8685 180.049 95.6732C181.348 95.5503 182.645 95.9176 183.687 96.703C184.719 97.4859 185.622 98.4243 186.365 99.4848C189.029 102.994 191.189 107.108 191.316 111.51C191.867 111.915 192.662 111.388 192.936 110.763C193.209 110.138 193.218 109.406 193.565 108.811C193.965 108.123 194.73 107.757 195.33 107.24C196.852 105.927 197.233 103.716 197.174 101.71C197.116 99.7044 196.725 97.6693 197.106 95.6976C197.335 94.4873 197.852 93.3551 198.135 92.1594C198.418 90.9638 198.452 89.6217 197.784 88.5919C196.808 87.0791 194.755 86.7814 192.965 86.6398C190.931 86.4641 189.111 86.6886 187.814 84.9756C187.205 84.0817 186.519 83.2424 185.765 82.4672C185.507 82.2134 182.897 80.6029 182.897 80.4955Z" fill="#512E4E"/>
<path opacity="0.1" d="M129.882 183.411L124.785 173.982L123.17 188.531C123.17 188.531 124.068 194.992 123.887 195.983C123.707 196.973 127.565 205.856 127.565 205.856C127.565 205.856 140.311 228.569 145.515 229.74L163.099 217.168L158.436 211.243C158.436 211.243 156.821 210.614 156.417 211.243C156.417 211.243 147.759 196.339 146.861 195.261C145.964 194.182 146.139 192.03 146.139 192.03C146.139 192.03 144.793 190.595 145.242 189.248C145.691 187.901 142.642 183.231 142.642 183.231L145.422 180.629L129.882 183.411Z" fill="black"/>
<path d="M125.053 172.909L123.707 173.982L122.093 188.531C122.093 188.531 122.99 194.992 122.81 195.983C122.629 196.973 126.492 205.856 126.492 205.856C126.492 205.856 139.233 228.569 144.437 229.74L162.026 217.168L157.358 211.243C157.358 211.243 155.743 210.614 155.339 211.243C155.339 211.243 146.681 196.339 145.783 195.261C144.886 194.182 145.066 192.03 145.066 192.03C145.066 192.03 143.72 190.595 144.169 189.248C144.618 187.901 141.564 183.231 141.564 183.231L144.344 180.629L125.053 172.909Z" fill="white"/>
<path opacity="0.1" d="M208.593 229.901C209.568 231.087 208.954 236.411 208.954 236.411L206.261 240.872C206.261 240.872 206.422 243.751 206.432 247.631L201.905 249.046C201.496 249.174 201.063 249.202 200.641 249.128C200.218 249.054 199.82 248.88 199.479 248.621C199.138 248.362 198.863 248.024 198.679 247.637C198.494 247.25 198.405 246.825 198.418 246.396L199.198 221.209L209.759 225.25C208.861 225.875 209.846 227.407 209.846 227.407C209.846 227.407 207.607 228.715 208.593 229.901Z" fill="black"/>
<path d="M209.134 229.359C210.11 230.545 209.495 235.874 209.495 235.874L206.803 240.335C206.803 240.335 206.964 243.209 206.978 247.094L202.369 248.534C201.968 248.658 201.544 248.685 201.13 248.613C200.717 248.54 200.327 248.369 199.993 248.115C199.659 247.861 199.391 247.531 199.21 247.152C199.029 246.774 198.942 246.357 198.955 245.937L199.74 220.672L210.305 224.713C209.402 225.338 210.388 226.865 210.388 226.865C210.388 226.865 208.159 228.178 209.134 229.359Z" fill="white"/>
<path d="M212.631 217.354C212.631 217.354 211.914 221.936 210.119 222.205C208.324 222.473 207.52 229.618 205.73 229.364C203.939 229.11 205.125 222.722 205.188 221.482C205.252 220.243 203.237 215.109 204.744 213.942C206.251 212.776 211.022 213.942 211.022 213.942L212.631 217.354Z" fill="#CF6F80"/>
<path opacity="0.1" d="M216.451 182.064L219.836 175.232C219.836 175.232 221.182 180.439 221.182 183.221C221.182 186.003 223.065 186.276 223.065 186.276C223.065 186.276 225.128 188.716 224.04 190.492C222.953 192.269 222.514 196.69 222.514 196.69C222.514 196.69 222.87 205.128 221.255 206.295C219.641 207.461 219.304 210.248 219.304 210.248C219.304 210.248 216.338 215.543 216.431 216.802C216.524 218.061 212.305 226.587 212.305 226.587C212.305 226.587 214.368 215.992 202.344 211.414C202.344 211.414 202.252 207.817 203.149 206.832C204.047 205.846 205.447 205.397 204.569 200.414C203.691 195.431 204.315 189.477 204.315 188.282C204.315 187.086 207.008 179.629 207.008 179.629L216.451 182.064Z" fill="black"/>
<path d="M217.914 174.256L220.87 175.232C220.87 175.232 222.221 180.439 222.221 183.221C222.221 186.003 224.104 186.276 224.104 186.276C224.104 186.276 226.167 188.716 225.079 190.492C223.992 192.269 223.557 196.69 223.557 196.69C223.557 196.69 223.913 205.128 222.299 206.295C220.684 207.461 220.324 210.248 220.324 210.248C220.324 210.248 217.363 215.543 217.455 216.802C217.548 218.061 213.324 226.587 213.324 226.587C213.324 226.587 215.392 215.992 203.364 211.414C203.364 211.414 203.276 207.818 204.174 206.832C205.071 205.846 206.471 205.397 205.593 200.414C204.715 195.431 205.339 189.477 205.339 188.282C205.339 187.086 208.032 179.629 208.032 179.629L217.914 174.256Z" fill="white"/>
<path opacity="0.1" d="M152.627 351.347C152.627 351.347 157.338 348.385 160.431 350.537C163.523 352.689 152.627 351.347 152.627 351.347Z" fill="black"/>
<path opacity="0.1" d="M189.238 342.187C189.238 342.187 193.409 341.65 196.911 345.422C200.413 349.195 189.238 342.187 189.238 342.187Z" fill="black"/>
<g opacity="0.1">
<path opacity="0.1" d="M195.34 106.171C194.74 106.688 193.97 107.059 193.57 107.747C193.228 108.338 193.218 109.065 192.945 109.699C192.672 110.334 191.877 110.851 191.326 110.451C191.199 106.059 189.033 101.935 186.375 98.4209C185.632 97.3604 184.728 96.422 183.697 95.6391C182.653 94.8538 181.354 94.4866 180.054 94.6094C178.59 94.8095 177.303 95.805 175.825 95.927C173.874 96.093 172.123 94.7411 170.186 94.6728C169.399 94.6806 168.623 94.8567 167.91 95.1892C167.196 95.5216 166.562 96.0028 166.05 96.6005C165.032 97.8022 164.276 99.2035 163.831 100.715C163.064 103.008 162.646 105.403 162.592 107.82C162.562 109.182 162.436 110.88 161.177 111.388C161.206 111.748 161.206 112.111 161.177 112.471C162.445 111.983 162.572 110.265 162.601 108.899C162.656 106.482 163.073 104.086 163.84 101.793C164.285 100.281 165.041 98.8777 166.06 97.6742C166.573 97.0781 167.207 96.5983 167.921 96.2668C168.634 95.9352 169.409 95.7595 170.196 95.7514C172.147 95.8197 173.903 97.1666 175.834 97.0056C177.298 96.8836 178.595 95.8831 180.063 95.6879C181.364 95.5651 182.663 95.9323 183.707 96.7176C184.738 97.5005 185.642 98.439 186.385 99.4994C189.043 103.008 191.209 107.122 191.336 111.524C191.887 111.93 192.682 111.402 192.955 110.778C193.228 110.153 193.238 109.421 193.579 108.826C193.979 108.138 194.75 107.772 195.35 107.254C196.872 105.941 197.252 103.731 197.194 101.725C197.194 101.661 197.194 101.598 197.194 101.539C197.101 103.277 196.638 105.048 195.34 106.171Z" fill="black"/>
<path opacity="0.1" d="M159.333 105.824C158.211 104.59 156.68 103.765 155.651 102.457C154.784 101.299 154.289 99.9053 154.231 98.4599C154.078 100.266 154.582 102.067 155.651 103.531C156.68 104.843 158.211 105.668 159.333 106.903C160.41 108.111 161.057 109.641 161.172 111.256C161.247 110.273 161.123 109.286 160.807 108.352C160.491 107.419 159.989 106.559 159.333 105.824Z" fill="black"/>
<path opacity="0.1" d="M198.145 91.0907C197.857 92.2863 197.345 93.4234 197.111 94.6289C196.972 95.4344 196.921 96.2525 196.96 97.069C196.976 96.6039 197.026 96.1407 197.111 95.683C197.345 94.4727 197.857 93.3405 198.145 92.1448C198.313 91.4853 198.367 90.8021 198.306 90.1244C198.275 90.4499 198.222 90.7729 198.145 91.0907Z" fill="black"/>
</g>
<path opacity="0.1" d="M64.741 371.19C90.9899 371.19 112.269 367.771 112.269 363.552C112.269 359.334 90.9899 355.915 64.741 355.915C38.4921 355.915 17.2132 359.334 17.2132 363.552C17.2132 367.771 38.4921 371.19 64.741 371.19Z" fill="#0BA4B2"/>
<path d="M66.2727 217.241H63.2144V286.136H66.2727V217.241Z" fill="#535461"/>
<path d="M85.4906 285.927L85.3003 289.03L85.0272 293.423L84.915 295.248L84.6467 299.64L84.5297 301.465L84.2565 305.858L81.1739 355.671C81.0399 357.814 80.0947 359.826 78.5306 361.296C76.9666 362.767 74.9013 363.586 72.755 363.587H56.7271C54.5813 363.586 52.5165 362.767 50.9533 361.296C49.3901 359.825 48.4459 357.814 48.3131 355.671L45.2451 305.823L44.9719 301.431L44.8598 299.606L44.5866 295.214L44.4744 293.389L44.2013 288.996L44.0062 285.892C43.9723 285.295 44.0607 284.697 44.2661 284.135C44.4715 283.573 44.7895 283.059 45.2006 282.624C45.6116 282.19 46.1071 281.844 46.6566 281.608C47.2061 281.372 47.798 281.25 48.396 281.251H81.1787C81.7745 281.256 82.3629 281.384 82.9076 281.625C83.4523 281.867 83.9418 282.217 84.3459 282.655C84.7499 283.093 85.0599 283.61 85.2568 284.172C85.4537 284.735 85.5332 285.332 85.4906 285.927Z" fill="#3F3D56"/>
<path d="M85.3004 289.03L85.0273 293.408H44.4549L44.1818 289.03H85.3004Z" fill="#9D9CB5"/>
<path d="M84.915 295.233L84.6468 299.616H44.8403L44.5671 295.233H84.915Z" fill="#9D9CB5"/>
<path d="M84.5297 301.446L84.2614 305.824H45.2256L44.9524 301.446H84.5297Z" fill="#9D9CB5"/>
<path d="M39.5139 243.063C57.3222 255.957 64.7557 276.122 64.7557 276.122C64.7557 276.122 43.294 275.385 25.4808 262.491C7.66767 249.598 0.248755 229.437 0.248755 229.437C0.248755 229.437 21.7007 230.169 39.5139 243.063Z" fill="#0BA4B2"/>
<path d="M0.234138 229.437C0.234138 229.437 22.5153 241.809 29.661 252.052C36.8068 262.296 64.7557 276.122 64.7557 276.122" stroke="#535461" stroke-width="2" stroke-miterlimit="10"/>
<path d="M51.0105 217.09C60.7024 224.103 64.7557 235.079 64.7557 235.079C64.7557 235.079 53.0737 234.679 43.3769 227.666C33.6802 220.653 29.6366 209.672 29.6366 209.672C29.6366 209.672 41.3137 210.072 51.0105 217.09Z" fill="#0BA4B2"/>
<path d="M29.6366 209.672C29.6366 209.672 41.7624 216.407 45.6499 221.98C49.5374 227.553 64.7557 235.079 64.7557 235.079" stroke="#535461" stroke-width="2" stroke-miterlimit="10"/>
<path d="M78.8277 234.522C67.6921 246.767 65.3362 262.77 65.3362 262.77C65.3362 262.77 81.0373 258.914 92.1632 246.665C103.289 234.415 105.655 218.417 105.655 218.417C105.655 218.417 89.9634 222.278 78.8277 234.522Z" fill="#0BA4B2"/>
<path d="M105.665 218.422C105.665 218.422 91.1585 230.974 87.4709 239.622C83.7834 248.27 65.3362 262.77 65.3362 262.77" stroke="#535461" stroke-width="2" stroke-miterlimit="10"/>
<path d="M487.604 230.213C487.604 230.213 479.551 190.126 482.634 185.139C482.634 185.139 482.746 180.502 482.561 174.592C482.561 174.368 482.561 174.143 482.561 173.914C483.103 174.276 483.668 174.602 484.253 174.89C487.093 176.35 490.354 176.771 493.472 176.081L491.033 173.363C490.448 172.714 489.838 172.011 489.711 171.152C489.584 170.293 489.936 169.527 490.238 168.761C492.555 162.904 492.677 155.54 488.214 151.069C484.443 147.312 483.526 142.461 479.434 139.03C476.444 136.516 474.8 132.832 473.249 129.269C471.937 126.258 470.615 123.222 469.864 120.031C469.279 117.537 469.045 114.955 468.24 112.52C467.435 110.085 465.928 107.718 463.572 106.63C462.733 106.244 461.801 106.024 461.036 105.512C460.031 104.834 459.426 103.731 458.699 102.764C455.007 97.884 442.642 100.759 436.789 102.74C435.198 103.239 433.724 104.056 432.457 105.141L432.511 105.053C432.555 104.98 432.609 104.907 432.657 104.834C432.017 105.352 431.463 105.97 431.019 106.664C430.165 108.016 429.809 109.592 429.097 111.056C428.238 112.788 423.463 117.625 425.517 119.572C425.66 119.703 425.825 119.808 426.004 119.884C426.775 120.205 427.624 120.29 428.443 120.128L428.355 120.338C427.654 122.056 427.295 123.895 427.297 125.75C427.297 133.769 433.906 140.269 442.066 140.269C443.601 140.271 445.126 140.035 446.588 139.571C446.622 139.757 446.651 139.942 446.686 140.128C446.686 140.201 446.71 140.274 446.72 140.347L446.461 140.709C446.448 140.686 446.434 140.665 446.417 140.645L438.759 151.353C437.589 152.177 430.848 157.058 430.467 160.718C430.067 164.725 429.667 169.414 429.667 169.414L429.614 170.42C429.279 170.7 428.888 170.903 428.467 171.017C428.046 171.131 427.605 171.152 427.175 171.079C424.785 170.688 424.785 179.863 424.785 179.863C424.785 179.863 423.195 181.327 422.102 180.058C421.01 178.79 418.122 183.089 418.122 183.089L400.026 183.87L399.611 183.894L398.636 180.873C398.531 180.555 398.304 180.29 398.006 180.138C397.707 179.985 397.36 179.957 397.041 180.058C396.965 180.083 396.892 180.114 396.821 180.151L396.753 180.19L396.626 180.278L396.563 180.337C396.528 180.368 396.495 180.403 396.465 180.439L396.407 180.507L396.377 180.537C396.265 180.692 396.19 180.873 396.16 181.062C396.129 181.252 396.144 181.447 396.202 181.63L397.041 184.221C393.548 184.924 389.978 186.905 392.89 192.362L378.13 189.634L382.905 193.645L407.557 198.735C407.23 199.321 407.445 200.17 408.464 201.366C412.854 206.524 420.854 207.925 424.073 208.286C424.923 210.189 425.985 211.99 427.238 213.654L426.96 218.793C426.96 218.793 418.81 257.963 417.317 259.949C418.071 259.095 418.76 258.186 419.38 257.23C417.015 265.278 413.708 276.293 412.84 277.942C411.445 280.578 410.152 291.241 411.742 291.924C412.23 292.134 413.625 292.032 415.615 291.881V292.764L415.527 326.238C415.527 326.238 415.927 346.769 414.83 348.726C413.732 350.683 413.439 354.787 413.439 354.787C413.439 354.787 409.05 362.884 405.572 366.139C405.548 366.164 405.522 366.187 405.494 366.207L405.386 365.446C405.386 365.446 401.206 370.727 391.958 370.429C391.958 370.429 386.393 374.05 394.646 374.245C402.899 374.44 413.439 373.952 413.439 373.952C413.439 373.952 420.8 362.728 426.965 364.192V372.698H428.853V364.055C429.728 363.479 430.478 362.73 431.055 361.855C431.633 360.98 432.027 359.997 432.214 358.965C432.375 357.901 432.257 356.814 431.87 355.81C431.484 354.806 430.842 353.921 430.009 353.24C429.635 352.902 429.334 352.49 429.127 352.029C428.92 351.569 428.81 351.071 428.804 350.566L428.736 350.625C428.736 350.454 428.692 350.278 428.672 350.098C428.131 345.705 427.453 336.643 429.848 329.937C433.131 320.743 434.126 307.937 431.736 300.314C430.964 297.877 430.331 295.399 429.838 292.891C429.78 292.574 429.726 292.271 429.677 291.988C431.311 292.209 432.929 292.535 434.521 292.964C440.057 294.491 452.168 294.775 462.509 294.692C462.533 294.975 462.562 295.272 462.596 295.57C462.781 297.639 463.166 299.686 463.748 301.68C465.045 305.584 465.64 322.797 465.64 322.797C465.64 322.797 467.313 336.95 466.401 342.709C465.913 345.91 465.425 349.126 465.147 352.357V352.421C465.147 352.421 462.406 360.229 460.402 364.47C460.353 364.577 460.299 364.685 460.25 364.787C459.716 364.836 459.19 364.952 458.685 365.134C458.685 365.134 455.997 370.502 453.319 371.39C450.641 372.278 451.529 375.202 457.592 374.128C463.655 373.054 472.81 372.176 472.81 372.176L473.205 366.7L475.069 364.367L474.581 369.829L476.566 369.438L476.303 362.796L479.351 358.98C479.351 358.98 483.034 355.7 477.561 349.248V349.39C477.503 349.297 477.449 349.2 477.385 349.107V349.078C476.478 347.672 475.756 345.051 477.078 340.4C479.468 331.997 480.858 324.369 480.858 324.369C480.858 324.369 486.195 303.935 479.78 294.267H480.063C479.406 292.907 478.941 291.461 478.683 289.972C478.65 289.797 478.621 289.616 478.595 289.431C483.341 289.157 487.999 288.298 491.799 286.444C491.784 286.424 489.497 237.934 487.604 230.213ZM427.351 196.393V196.49L426.375 196.539L427.351 196.393ZM424.004 196.856C423.844 196.892 423.694 196.964 423.565 197.066C423.146 197.66 422.883 198.35 422.8 199.072L421.278 198.73C421.278 198.73 420.21 198.501 418.673 198.242L417.946 197.51C419.946 197.344 422.024 197.1 424.004 196.856Z" fill="url(#paint1_linear_116_487)"/>
<path d="M474.356 362.864L473.776 369.78L475.722 369.389L475.43 361.888L474.356 362.864Z" fill="#1D2366"/>
<path d="M429.955 330.03C427.609 336.716 428.272 345.739 428.799 350.122C428.994 351.742 429.175 352.728 429.175 352.728C429.175 352.728 425.668 360.722 425.375 361.025C425.082 361.327 415.054 367.452 415.054 367.452L408.045 371.546C408.045 371.546 400.933 368.428 404.343 367.354C405.039 367.075 405.667 366.647 406.182 366.1C409.596 362.855 413.883 354.787 413.883 354.787C413.883 354.787 414.176 350.693 415.249 348.746C416.322 346.798 415.932 326.335 415.932 326.335L416.015 292.979V288.63L429.355 288.728C429.439 290.204 429.632 291.672 429.931 293.12C430.41 295.62 431.03 298.09 431.789 300.519C434.14 308.127 433.165 320.869 429.955 330.03Z" fill="#FFB0B1"/>
<path opacity="0.1" d="M429.175 352.728C429.175 352.728 425.668 360.722 425.375 361.025C425.082 361.327 415.054 367.452 415.054 367.452L408.045 371.546C408.045 371.546 400.933 368.428 404.343 367.354C405.039 367.075 405.667 366.647 406.182 366.1L406.484 368.233L408.82 368.135L428.819 350.132C428.994 351.742 429.175 352.728 429.175 352.728Z" fill="black"/>
<path d="M428.931 350.586L408.82 368.711L406.484 368.809L405.996 365.392C405.996 365.392 401.909 370.653 392.827 370.361C392.827 370.361 387.373 373.967 395.456 374.162C403.538 374.358 413.859 373.87 413.859 373.87C413.859 373.87 421.068 362.645 427.102 364.109V372.586H428.955V364.031C429.817 363.45 430.553 362.701 431.118 361.829C431.683 360.957 432.065 359.979 432.243 358.955C432.403 357.9 432.29 356.822 431.913 355.823C431.536 354.825 430.909 353.941 430.092 353.255C429.727 352.913 429.436 352.499 429.236 352.04C429.036 351.581 428.932 351.086 428.931 350.586Z" fill="#1D2366"/>
<path d="M476.21 340.454C474.912 345.09 475.62 347.701 476.507 349.102V349.131C477.646 350.861 478.438 352.795 478.839 354.827L478.917 355.266L469.767 368.613L464.801 370.565C464.801 370.565 456.816 367.837 458.275 367.057C458.641 366.866 459.211 365.851 459.865 364.45C461.816 360.229 464.508 352.44 464.508 352.44V352.377C464.791 349.16 465.24 345.954 465.738 342.762C466.63 337.018 464.991 322.919 464.991 322.919C464.991 322.919 464.406 305.775 463.138 301.875C462.565 299.893 462.185 297.86 462.001 295.804C461.738 293.364 461.679 291.353 461.679 291.353C461.679 291.353 466.938 284.033 476.576 291.939C477.347 292.57 478.025 293.306 478.59 294.125C485.248 303.603 479.888 324.481 479.888 324.481C479.888 324.481 478.546 332.075 476.21 340.454Z" fill="#FFB0B1"/>
<path opacity="0.1" d="M478.932 355.266L469.781 368.613L464.816 370.565C464.816 370.565 456.831 367.837 458.289 367.057C458.655 366.866 459.226 365.851 459.88 364.45C463.26 364.421 465.011 367.642 465.011 367.642L469.293 366.959C469.293 366.959 474.942 355.851 476.21 355.173C477.478 354.495 476.405 350.102 476.405 350.102V348.985C476.439 349.024 476.469 349.068 476.508 349.107V349.136C477.646 350.866 478.438 352.8 478.839 354.831L478.932 355.266Z" fill="black"/>
<path d="M465.304 367.93C465.304 367.93 462.865 363.45 458.192 365.104C458.192 365.104 455.563 370.473 452.934 371.341C450.305 372.21 451.183 375.138 457.124 374.07C463.065 373.001 472.02 372.117 472.02 372.117L472.41 366.656L478.449 358.96C478.449 358.96 482.049 355.695 476.693 349.268V350.385C476.693 350.385 477.766 354.778 476.498 355.456C475.23 356.134 469.601 367.247 469.601 367.247L465.304 367.93Z" fill="#1D2366"/>
<path opacity="0.1" d="M429.37 288.718C429.454 290.194 429.646 291.662 429.945 293.11C424.453 292.305 419.356 292.705 416.015 292.969V288.62L429.37 288.718Z" fill="black"/>
<path opacity="0.1" d="M479.132 295.341C479.132 295.341 471.327 295.721 462.021 295.799C461.758 293.359 461.699 291.349 461.699 291.349C461.699 291.349 466.957 284.028 476.595 291.934C477.366 292.565 478.044 293.301 478.61 294.121C478.761 294.537 478.935 294.944 479.132 295.341Z" fill="black"/>
<path d="M479.132 294.462C479.132 294.462 444.949 296.117 434.53 293.193C424.112 290.27 413.786 292.803 412.23 292.125C410.674 291.446 411.937 280.822 413.303 278.191C414.669 275.561 422.161 248.958 422.161 248.958L429.37 211.351L436.964 209.257L437.501 209.106L450.734 205.455L460.431 202.776C460.431 202.776 479.712 278.094 478.059 283.647C477.458 285.774 477.361 288.011 477.776 290.182C478.028 291.665 478.485 293.105 479.132 294.462Z" fill="#1D2366"/>
<path d="M404.24 185.632C404.24 185.632 397.412 192.952 402.582 197.032C407.752 201.112 411.152 197.422 411.152 197.422L404.24 185.632Z" fill="#C7DAF5"/>
<path opacity="0.1" d="M404.24 185.632C404.24 185.632 397.412 192.952 402.582 197.032C407.752 201.112 411.152 197.422 411.152 197.422L404.24 185.632Z" fill="black"/>
<path d="M459.411 137.502C459.411 137.502 458.611 138.264 457.407 139.386C455.69 140.992 453.148 143.339 450.895 145.306C447.773 148.024 445.198 150.02 446.12 148.317C447.042 146.614 446.866 143.647 446.408 140.87C446.373 140.684 446.344 140.499 446.31 140.318C445.93 138.279 445.427 136.264 444.803 134.286C444.803 134.286 449.846 127.766 452.636 125.194C453.675 124.218 454.402 123.818 454.446 124.496C454.495 125.409 455.178 127.424 456.026 129.562C456.051 129.63 456.075 129.694 456.104 129.762C456.67 131.226 457.309 132.729 457.87 134.027C458.728 136.019 459.411 137.502 459.411 137.502Z" fill="#FFB0B1"/>
<path opacity="0.1" d="M456.104 129.762C455.63 132.313 454.48 134.689 452.775 136.643C451.069 138.597 448.87 140.057 446.408 140.87C446.02 138.642 445.484 136.442 444.803 134.286C444.803 134.286 454.3 122.012 454.446 124.496C454.48 125.438 455.221 127.527 456.104 129.762Z" fill="black"/>
<path opacity="0.1" d="M445.461 144.149L446.69 142.417C446.69 142.417 447.505 147.385 450.5 145.194C453.495 143.002 453.641 161.684 453.641 161.684L450.427 209.77L427.199 208.379L427.858 185.144L430.487 173.431L436.989 156.404L440.857 150.777L445.461 144.149Z" fill="black"/>
<path d="M453.641 161.982L450.715 205.46L450.407 210.067L437.457 209.291L436.969 209.262L427.214 208.676L427.872 185.436L430.502 173.724L437.003 156.696L440.871 151.069L445.476 144.418L446.705 142.69C446.705 142.69 447.52 147.658 450.515 145.467L450.578 145.423C453.505 143.568 453.641 161.982 453.641 161.982Z" fill="#1D2366"/>
<path d="M430.828 169.654C430.828 169.654 429.663 172.094 427.321 171.698C424.98 171.303 424.985 180.483 424.985 180.483C424.985 180.483 423.429 181.947 422.356 180.678C421.283 179.409 418.454 183.699 418.454 183.699L400.728 184.48C400.728 184.48 408.615 188.086 407.069 198.999C407.069 198.999 433.848 197.34 434.726 194.807C435.604 192.274 430.828 169.654 430.828 169.654Z" fill="white"/>
<path opacity="0.03" d="M430.828 169.654C430.828 169.654 429.663 172.094 427.321 171.698C424.98 171.303 424.985 180.483 424.985 180.483C424.985 180.483 423.429 181.947 422.356 180.678C421.283 179.409 418.454 183.699 418.454 183.699L400.728 184.48C400.728 184.48 408.615 188.086 407.069 198.999C407.069 198.999 433.848 197.34 434.726 194.807C435.604 192.274 430.828 169.654 430.828 169.654Z" fill="black"/>
<path d="M379.315 190.214L383.988 194.206L422.453 202.293L417.683 197.422L379.315 190.214Z" fill="white"/>
<path d="M445.534 145.686C444.895 146.663 443.066 151.66 441.54 156.023C440.267 159.659 439.203 162.855 439.203 162.855C439.203 162.855 436.72 179.029 435.452 181.952C434.184 184.875 434.872 196.276 434.872 196.276L430.145 224.43C430.145 224.43 428.004 238.949 424.697 247.621C421.434 256.157 417.8 260.159 417.688 260.286C419.151 258.304 427.126 219.291 427.126 219.291L429.76 170.088C429.76 170.088 430.145 165.413 430.536 161.416C430.926 157.419 438.828 151.963 438.828 151.963L446.447 141.123C447.212 142.148 446.7 143.934 445.534 145.686Z" fill="white"/>
<path d="M425.668 208.92C425.668 208.92 414.449 208.432 409.015 201.903C403.582 195.373 421.575 199.296 421.575 199.296L426.253 200.37L425.668 208.92Z" fill="#FFB0B1"/>
<path opacity="0.1" d="M478.059 283.652C477.458 285.779 477.361 288.016 477.776 290.187C465.538 291.056 452.446 287.747 452.446 287.747C450.007 289.992 443.583 293.301 443.583 293.301L440.081 249.866C437.842 244.01 436.964 213.327 436.964 213.327C436.964 213.327 437.164 211.722 437.452 209.316C437.452 209.257 437.452 209.194 437.477 209.135C438.35 202.415 440.081 189.799 440.93 188.096C442.101 185.754 437.33 179.522 437.33 179.522L439.501 161.001L439.764 158.766C444.339 156.721 447.846 150.191 447.846 150.191L450.539 145.472C453.465 143.593 453.617 162.006 453.617 162.006L450.69 205.485L460.387 202.805C460.387 202.805 479.712 278.099 478.059 283.652Z" fill="black"/>
<path d="M490.619 286.654C477.278 293.281 453.031 287.142 453.031 287.142C450.593 289.387 444.169 292.696 444.169 292.696L440.662 249.261C438.428 243.405 437.55 212.722 437.55 212.722C437.55 212.722 440.369 189.829 441.54 187.491C441.881 186.808 441.715 185.793 441.31 184.7C439.32 179.496 438.588 173.896 439.174 168.355L440.11 160.396L440.369 158.165C444.949 156.116 448.456 149.586 448.456 149.586L450.895 145.311L455.382 137.434L457.509 133.705L457.87 134.032L460.626 136.531C460.626 136.531 461.797 137.507 463.552 138.971C467.372 142.192 473.971 147.863 477.376 151.333C480.371 154.388 481.317 166.272 481.59 175.217C481.77 181.108 481.663 185.724 481.663 185.724C478.644 190.697 486.541 230.623 486.541 230.623C488.38 238.339 490.619 286.654 490.619 286.654Z" fill="white"/>
<path opacity="0.03" d="M465.011 149.488C465.011 149.488 455.856 166.926 456.919 173.553C457.982 180.18 461.006 187.681 459.548 189.433C459.047 190.097 458.399 190.636 457.655 191.008C456.911 191.379 456.092 191.574 455.26 191.576C453.797 191.673 449.895 194.402 449.895 194.694C449.895 194.987 446.29 194.987 443.066 196.354C439.842 197.72 435.082 198.496 435.082 198.496C435.082 198.496 425.814 198.203 424.951 199.082C424.087 199.96 423.2 205.216 425.048 209.408C426.897 213.601 428.95 216.729 430.502 217.3C432.053 217.871 441.896 214.572 449.88 213.791C457.865 213.01 466.533 206.68 466.533 206.68C466.533 206.68 476.078 203.264 477.751 197.52C479.424 191.776 475.708 160.205 475.708 160.205C475.708 160.205 472.898 145.491 465.011 149.488Z" fill="black"/>
<path opacity="0.03" d="M463.84 148.024C463.84 148.024 454.685 165.466 455.758 172.089C456.831 178.711 459.845 186.217 458.382 187.974C457.883 188.639 457.236 189.178 456.493 189.55C455.75 189.922 454.93 190.116 454.1 190.117C452.636 190.214 448.734 192.942 448.734 193.235C448.734 193.528 445.13 193.528 441.905 194.89C438.681 196.251 433.921 197.032 433.921 197.032C433.921 197.032 424.653 196.739 423.795 197.618C422.936 198.496 422.039 203.757 423.892 207.944C425.746 212.132 427.794 215.265 429.346 215.836C430.897 216.407 440.74 213.108 448.724 212.332C456.709 211.556 465.377 205.216 465.377 205.216C465.377 205.216 474.917 201.8 476.571 196.061C478.224 190.322 474.527 158.741 474.527 158.741C474.527 158.741 471.727 144.032 463.84 148.024Z" fill="black"/>
<path d="M464.723 148.61C464.723 148.61 455.568 166.052 456.641 172.675C457.714 179.297 460.728 186.803 459.27 188.555C458.771 189.221 458.123 189.762 457.379 190.134C456.635 190.507 455.815 190.702 454.982 190.702C453.519 190.8 449.617 193.528 449.617 193.816C449.617 194.104 446.017 194.109 442.788 195.475C439.559 196.842 434.804 197.618 434.804 197.618C434.804 197.618 425.536 197.325 424.673 198.203C423.809 199.082 422.922 204.343 424.77 208.53C426.619 212.717 428.672 215.85 430.223 216.421C431.775 216.992 441.618 213.693 449.602 212.913C457.587 212.132 466.255 205.802 466.255 205.802C466.255 205.802 475.8 202.386 477.473 196.642C479.146 190.898 475.454 159.327 475.454 159.327C475.454 159.327 472.605 144.637 464.723 148.61Z" fill="white"/>
<path opacity="0.1" d="M464.523 195.392C464.523 195.392 457.207 193.928 459.753 196.368C462.299 198.808 462.284 200.946 465.401 200.848C468.518 200.751 464.523 195.392 464.523 195.392Z" fill="black"/>
<path opacity="0.1" d="M476.888 247.894C476.888 247.894 473.581 250.135 479.907 255.298C486.234 260.461 476.888 247.894 476.888 247.894Z" fill="black"/>
<path opacity="0.1" d="M470.576 266.308C470.576 266.601 469.406 277.044 473.786 279.655C478.166 282.266 470.576 266.308 470.576 266.308Z" fill="black"/>
<path d="M401.031 184.456C397.499 184.578 389.871 185.656 393.826 193.04C397.324 199.575 403.201 195.207 406.508 191.893C405.702 188.804 403.741 186.141 401.031 184.456Z" fill="#FFB0B1"/>
<path d="M406.552 191.834L406.698 191.683L406.552 191.834Z" fill="#FFB0B1"/>
<path opacity="0.1" d="M463.552 139.269C459.806 141.831 456.665 143.993 456.051 144.442C454.373 145.686 451.173 152.992 449.11 156.721C447.466 159.722 442.125 160.493 440.11 160.684L440.369 158.453C444.949 156.404 448.456 149.874 448.456 149.874L457.509 133.993L460.626 136.829C460.626 136.829 461.797 137.805 463.552 139.269Z" fill="black"/>
<path d="M463.552 138.976C459.806 141.538 456.665 143.7 456.051 144.154C454.373 145.394 451.173 152.699 449.11 156.428C447.466 159.429 442.125 160.2 440.11 160.391L440.369 158.161C444.949 156.111 448.456 149.581 448.456 149.581L457.509 133.701L460.626 136.526C460.626 136.526 461.797 137.492 463.552 138.976Z" fill="#DCE7FF"/>
<path d="M456.343 126.541C456.345 129.471 455.457 132.332 453.797 134.745C451.836 137.598 448.918 139.653 445.573 140.538C442.227 141.423 438.675 141.078 435.561 139.567C432.448 138.055 429.979 135.477 428.602 132.3C427.226 129.123 427.034 125.558 428.06 122.251C429.086 118.944 431.263 116.115 434.196 114.277C437.129 112.439 440.623 111.713 444.045 112.232C447.466 112.751 450.589 114.48 452.845 117.106C455.102 119.731 456.343 123.079 456.343 126.541Z" fill="#FFB0B1"/>
<path opacity="0.1" d="M481.59 175.222C479.609 174.003 477.996 172.269 476.922 170.205C476.108 168.595 475.566 166.735 474.176 165.593C472.922 164.568 471.249 164.319 469.689 163.861C464.557 162.343 460.255 157.658 460.094 152.309C460.016 149.791 460.801 147.277 460.445 144.784C460.243 143.372 459.682 142.036 458.816 140.904C458.386 140.362 457.915 139.855 457.407 139.386C456.724 138.742 456.007 138.117 455.382 137.434C454.989 137.011 454.645 136.544 454.358 136.043C454.126 135.633 453.938 135.199 453.797 134.75C452.822 131.763 453.709 128.22 452.636 125.199L452.578 125.033C452.173 123.959 451.349 122.886 450.202 122.803C449.056 122.72 448.076 123.671 446.983 124.096C444.695 124.984 442.227 123.471 440.32 121.929C438.413 120.387 436.262 118.625 433.838 118.967C432.233 119.196 430.965 120.289 429.487 120.856C429.153 120.985 428.809 121.084 428.458 121.153C429.709 118.032 432.007 115.445 434.957 113.835C437.907 112.225 441.326 111.693 444.626 112.332C447.925 112.97 450.9 114.738 453.038 117.331C455.176 119.925 456.345 123.184 456.343 126.546C456.345 127.561 456.239 128.574 456.026 129.567C456.051 129.635 456.075 129.699 456.104 129.767C456.67 131.231 457.309 132.734 457.87 134.032L460.626 136.531C460.626 136.531 461.797 137.507 463.552 138.971C467.372 142.192 473.971 147.863 477.376 151.333C480.371 154.398 481.307 166.276 481.59 175.222Z" fill="black"/>
<path d="M429.316 111.939C430.014 110.519 430.36 108.928 431.194 107.581C432.418 105.629 434.555 104.38 436.75 103.623C442.481 101.647 454.592 98.7771 458.211 103.623C458.924 104.599 459.514 105.683 460.499 106.356C461.25 106.869 462.157 107.088 462.982 107.474C465.289 108.557 466.762 110.919 467.547 113.33C468.333 115.741 468.567 118.328 469.142 120.812C469.879 123.998 471.171 127.019 472.459 130.021C473.976 133.564 475.586 137.239 478.512 139.742C482.507 143.158 483.39 147.995 487.097 151.743C491.487 156.194 491.345 163.539 489.082 169.371C488.785 170.137 488.448 170.937 488.565 171.752C488.682 172.567 489.287 173.309 489.858 173.958L492.257 176.667C486.58 178.038 480.156 175.071 477.512 169.863C476.698 168.253 476.156 166.398 474.761 165.252C473.513 164.227 471.835 163.983 470.279 163.524C465.147 162.001 460.845 157.311 460.684 151.963C460.606 149.449 461.392 146.936 461.036 144.447C460.838 143.026 460.275 141.681 459.402 140.543C458.06 138.791 456.036 137.614 454.943 135.662C453.095 132.397 454.5 128.156 453.168 124.652C452.758 123.579 451.939 122.505 450.793 122.422C449.646 122.339 448.666 123.291 447.568 123.715C445.286 124.604 442.818 123.096 440.91 121.549C439.003 120.002 436.852 118.245 434.423 118.591C432.818 118.816 431.555 119.909 430.077 120.48C428.985 120.899 426.77 121.275 425.814 120.353C423.795 118.493 428.472 113.677 429.316 111.939Z" fill="#591D4B"/>
<path opacity="0.1" d="M478.868 168.253C478.049 166.642 477.512 164.788 476.117 163.646C474.869 162.621 473.191 162.372 471.63 161.913C466.503 160.396 462.201 155.706 462.036 150.357C461.958 147.844 462.743 145.325 462.392 142.836C462.187 141.425 461.625 140.089 460.758 138.957C459.411 137.205 457.387 136.028 456.299 134.076C454.451 130.816 455.856 126.575 454.519 123.066C454.114 121.998 453.29 120.924 452.149 120.836C451.007 120.748 450.017 121.71 448.924 122.134C446.642 123.022 444.169 121.51 442.266 119.967C440.364 118.425 438.203 116.663 435.779 117.005C434.174 117.234 432.906 118.328 431.433 118.894C430.341 119.313 428.121 119.694 427.165 118.772C425.156 116.82 429.833 112.012 430.672 110.285C431.37 108.86 431.716 107.274 432.555 105.927C432.599 105.854 432.648 105.78 432.697 105.707C432.069 106.227 431.527 106.843 431.092 107.532C430.258 108.879 429.911 110.461 429.214 111.89C428.37 113.618 423.692 118.44 425.707 120.377C426.682 121.305 428.877 120.924 429.97 120.504C431.433 119.933 432.711 118.84 434.316 118.616C436.755 118.269 438.901 120.031 440.803 121.573C442.705 123.115 445.193 124.628 447.466 123.74C448.559 123.315 449.515 122.359 450.685 122.447C451.856 122.534 452.636 123.603 453.061 124.677C454.392 128.181 452.988 132.422 454.836 135.687C455.929 137.605 457.953 138.805 459.294 140.567C460.167 141.705 460.73 143.05 460.928 144.471C461.284 146.96 460.499 149.474 460.577 151.987C460.738 157.355 465.04 162.026 470.171 163.548C471.718 164.007 473.405 164.251 474.654 165.276C476.054 166.423 476.605 168.277 477.405 169.888C480.049 175.095 486.473 178.062 492.15 176.691L491.019 175.412C486.097 175.486 481.117 172.684 478.868 168.253Z" fill="black"/>
<path opacity="0.1" d="M445.242 145.979C444.603 146.955 442.774 151.953 441.247 156.316C439.818 155.759 438.52 152.211 438.52 152.211L446.139 141.367C446.92 142.441 446.407 144.222 445.242 145.979Z" fill="black"/>
<path d="M445.534 145.686C444.895 146.663 443.066 151.66 441.54 156.023C440.11 155.471 438.813 151.919 438.813 151.919L446.432 141.079C447.212 142.148 446.7 143.934 445.534 145.686Z" fill="#DCE7FF"/>
<path d="M401.236 195.544L397.012 182.215C396.962 182.059 396.943 181.895 396.956 181.732C396.97 181.568 397.016 181.409 397.091 181.264C397.166 181.118 397.27 180.989 397.395 180.884C397.52 180.778 397.665 180.698 397.821 180.649C398.136 180.551 398.476 180.581 398.768 180.732C399.061 180.884 399.281 181.145 399.382 181.459L403.606 194.772L403.187 197.559L401.236 195.544Z" fill="#BE8B87"/>
<path opacity="0.1" d="M397.412 181.044C397.727 180.945 398.068 180.974 398.362 181.126C398.655 181.277 398.877 181.54 398.977 181.854L403.201 195.168L402.884 197.257L403.192 197.579L403.611 194.792L399.363 181.479C399.262 181.165 399.041 180.904 398.749 180.752C398.457 180.6 398.116 180.57 397.802 180.668C397.537 180.754 397.309 180.926 397.153 181.156C397.236 181.112 397.322 181.074 397.412 181.044Z" fill="white"/>
<path d="M401.236 195.544L403.606 194.792L403.26 197.076L403.187 197.579L402.494 196.856L401.236 195.544Z" fill="#EFC8C4"/>
<path d="M402.494 196.856C402.535 196.804 402.587 196.761 402.645 196.729C402.68 196.708 402.719 196.696 402.76 196.696C402.8 196.696 402.84 196.708 402.875 196.729C402.908 196.77 402.936 196.814 402.957 196.861C402.99 196.915 403.034 196.961 403.086 196.996C403.138 197.03 403.198 197.053 403.26 197.061L403.187 197.549L402.494 196.856Z" fill="#727A9C"/>
<path d="M396.987 186.949C396.987 186.949 405.46 186.901 403.465 190.507C401.47 194.114 398.353 194.548 398.353 194.548L396.987 186.949Z" fill="#FFB0B1"/>
<path d="M344.294 25.0945H343.928C329.373 25.0945 316.501 32.8005 309.097 44.1715C301.692 32.8005 288.82 25.0945 274.265 25.0945H273.9C262.977 25.1986 252.536 29.6117 244.847 37.3746C237.157 45.1376 232.841 55.6231 232.835 66.5526C232.835 80.1247 238.776 99.3823 250.36 115.229C272.431 145.423 309.097 171.84 309.097 171.84C309.097 171.84 345.762 145.428 367.829 115.229C379.418 99.3823 385.354 80.1247 385.354 66.5526C385.348 55.6239 381.032 45.1391 373.344 37.3763C365.655 29.6135 355.216 25.1999 344.294 25.0945ZM339.06 117.552C337.403 117.545 335.786 117.038 334.422 116.095C333.057 115.153 332.01 113.82 331.417 112.271H322.715C322.142 112.268 321.585 112.085 321.12 111.749C320.656 111.413 320.308 110.94 320.125 110.397L317.452 102.34L308.994 131.909C308.83 132.479 308.485 132.979 308.012 133.335C307.538 133.692 306.962 133.885 306.37 133.886H306.199C305.581 133.856 304.992 133.615 304.531 133.203C304.069 132.791 303.763 132.232 303.663 131.621L294.947 79.1681L288.576 110.207C288.43 110.796 288.091 111.32 287.613 111.694C287.135 112.068 286.545 112.272 285.938 112.271H273.68C273.313 112.287 272.946 112.228 272.602 112.098C272.258 111.968 271.944 111.77 271.678 111.515C271.413 111.26 271.201 110.955 271.057 110.616C270.913 110.278 270.838 109.913 270.838 109.546C270.838 109.178 270.913 108.813 271.057 108.475C271.201 108.136 271.413 107.831 271.678 107.576C271.944 107.321 272.258 107.123 272.602 106.993C272.946 106.863 273.313 106.804 273.68 106.82H283.792L292.815 65.0885C292.963 64.4715 293.321 63.9251 293.827 63.5428C294.333 63.1605 294.957 62.966 295.59 62.9925C296.224 63.019 296.829 63.2649 297.301 63.6882C297.774 64.1114 298.084 64.6858 298.181 65.313L307.082 118.821L314.662 92.3644C314.82 91.8072 315.154 91.3161 315.613 90.9642C316.073 90.6124 316.634 90.4188 317.213 90.4123H317.267C317.84 90.4125 318.399 90.5938 318.863 90.9303C319.327 91.2668 319.673 91.7414 319.852 92.2863L324.686 106.835H331.31C331.781 105.403 332.638 104.129 333.786 103.154C334.935 102.179 336.331 101.541 337.819 101.309C339.307 101.078 340.831 101.262 342.221 101.843C343.611 102.423 344.814 103.376 345.698 104.597C346.581 105.818 347.109 107.259 347.225 108.762C347.341 110.264 347.04 111.77 346.355 113.112C345.67 114.454 344.628 115.581 343.343 116.368C342.058 117.155 340.581 117.571 339.075 117.571L339.06 117.552Z" fill="#0BA4B2"/>
</g>
<defs>
<linearGradient id="paint0_linear_116_487" x1="173.805" y1="378.159" x2="173.805" y2="77.8553" gradientUnits="userSpaceOnUse">
<stop stop-color="#808080" stop-opacity="0.25"/>
<stop offset="0.54" stop-color="#808080" stop-opacity="0.12"/>
<stop offset="1" stop-color="#808080" stop-opacity="0.1"/>
</linearGradient>
<linearGradient id="paint1_linear_116_487" x1="108877" y1="226583" x2="108877" y2="72434.7" gradientUnits="userSpaceOnUse">
<stop stop-color="#808080" stop-opacity="0.25"/>
<stop offset="0.54" stop-color="#808080" stop-opacity="0.12"/>
<stop offset="1" stop-color="#808080" stop-opacity="0.1"/>
</linearGradient>
<clipPath id="clip0_116_487">
<rect width="539" height="382" fill="white"/>
</clipPath>
</defs>
</svg>
