<svg width="42" height="36" viewBox="0 0 42 36" fill="none" xmlns="http://www.w3.org/2000/svg">
<path fill-rule="evenodd" clip-rule="evenodd" d="M18.8059 0.0832437C16.554 0.286034 13.6781 0.992743 11.8144 1.80141C10.6908 2.28893 10.4314 3.27972 11.2523 3.9484C11.8148 4.40656 12.2481 4.4302 13.2346 4.05654C18.5982 2.02495 24.0406 2.0633 28.9954 4.16767C35.3917 6.88427 39.2829 12.4932 39.014 18.6088C38.7483 24.6507 35.2611 30.0206 30.5331 31.6681C27.8052 32.6186 25.2049 32.3484 24.0383 30.9932C23.1276 29.9352 22.5899 28.6697 22.5721 27.5423L22.5622 26.9072L23.1627 26.8012C27.2816 26.0739 30.5175 23.25 31.3526 19.6541C31.4552 19.2124 31.4834 18.0928 31.4834 14.4536C31.4834 9.895 31.4801 9.81218 31.2897 9.59387C31.1832 9.47173 30.9794 9.29716 30.8368 9.20598C30.5884 9.04717 30.459 9.04018 27.774 9.04018C25.089 9.04018 24.9596 9.04717 24.7112 9.20598C24.2185 9.52102 24.0647 9.778 24.0647 10.2865C24.0647 10.7948 24.2183 11.0518 24.7109 11.367C24.9475 11.5184 25.1243 11.535 26.7527 11.5578L28.5354 11.5829L28.5026 15.337C28.4748 18.5145 28.4462 19.1593 28.3166 19.5347C27.7141 21.2801 26.6978 22.4935 25.0823 23.3965C23.8036 24.1113 22.6484 24.3946 21.0127 24.3946C19.377 24.3946 18.2218 24.1113 16.9431 23.3965C15.3275 22.4935 14.3113 21.2801 13.7088 19.5347C13.5792 19.1593 13.5506 18.5145 13.5228 15.337L13.49 11.5829L15.2727 11.5578C16.901 11.535 17.0779 11.5184 17.3144 11.367C17.8071 11.0518 17.9607 10.7948 17.9607 10.2865C17.9607 9.778 17.8069 9.52102 17.3141 9.20598C17.0658 9.04717 16.9364 9.04018 14.2514 9.04018C11.5664 9.04018 11.437 9.04717 11.1886 9.20598C11.0459 9.29716 10.8421 9.47173 10.7357 9.59387C10.5453 9.81218 10.542 9.895 10.542 14.4536C10.542 19.4647 10.5513 19.5787 11.0635 20.8801C12.2388 23.8659 15.2887 26.1836 18.8528 26.7994L19.4632 26.9049L19.626 27.9403C19.8185 29.1652 20.0387 29.9476 20.4443 30.8477C21.0826 32.2645 22.3172 33.4666 23.7611 34.077C25.0131 34.6063 25.5141 34.6913 27.3514 34.6852C28.7562 34.6806 29.0701 34.6541 29.9657 34.4639C30.5255 34.3451 31.3073 34.1372 31.703 34.0018C36.8751 32.2328 40.6786 27.2916 41.8307 20.8445C42.0738 19.4846 42.0512 16.5011 41.788 15.1914C41.3859 13.1909 40.8558 11.7811 39.8376 10.0051C37.3109 5.59757 32.6443 2.21149 27.1025 0.764383C24.6161 0.115086 21.3922 -0.149619 18.8059 0.0832437ZM6.40793 5.17221C5.78636 5.40403 4.05095 7.22978 2.9342 8.82653C-0.37716 13.5615 -0.921916 19.5147 1.48408 24.6733C1.75585 25.2559 2.22548 26.1135 2.52786 26.5789L3.0776 27.4254L2.75925 27.7612C2.33639 28.2072 1.9061 28.956 1.70777 29.591C1.4946 30.2734 1.49526 31.4703 1.70918 32.1576C2.38297 34.3229 4.57523 35.851 7.2083 35.9908C9.81423 36.1291 12.3095 34.6921 13.1936 32.5441C13.5136 31.7664 13.5886 30.5232 13.3648 29.7051C12.9693 28.2597 11.7507 26.9422 10.2133 26.2978C8.90305 25.7486 7.65474 25.6041 6.31618 25.8469C5.95473 25.9125 5.62925 25.9661 5.593 25.9661C5.48538 25.9661 4.23801 23.7246 3.98221 23.0714C2.91721 20.3528 2.71277 17.5857 3.37322 14.8296C3.97225 12.3298 5.47618 9.77004 7.51848 7.7739C7.95956 7.34283 8.37059 6.86014 8.43182 6.70134C8.80895 5.72269 7.52749 4.75449 6.40793 5.17221ZM8.75777 28.5456C9.35136 28.7868 9.91697 29.2684 10.2139 29.7855C10.4045 30.1175 10.4446 30.3068 10.444 30.8711C10.4432 31.4941 10.4151 31.5994 10.1248 32.0612C9.7701 32.6256 9.47513 32.8695 8.76782 33.1834C8.36139 33.3637 8.16644 33.3966 7.49002 33.3987C6.82845 33.4007 6.61143 33.3673 6.22227 33.2034C3.78115 32.1756 3.98446 29.2259 6.55142 28.4272C7.14407 28.2428 8.14475 28.2965 8.75777 28.5456Z" fill="white"/>
</svg>
