<svg width="48" height="48" viewBox="0 0 48 48" fill="none" xmlns="http://www.w3.org/2000/svg">
<path d="M8.19043 11.5744C8.68623 15.8396 11.5292 19.1717 15.6591 20.3262C16.0562 20.4372 16.3391 20.5061 16.714 20.543C17.0744 20.5786 17.513 20.5838 18.2217 20.5841C19.1222 20.5844 19.7756 20.5521 20.3916 20.4327C21.0119 20.3124 21.5713 20.1083 22.2903 19.792L22.1056 19.3722L22.2903 19.792C26.8678 17.7784 29.3036 12.5884 27.9154 7.79741L27.9154 7.7974C26.9212 4.36692 24.1667 1.68291 20.7275 0.799134L20.7274 0.799127C20.1795 0.658352 19.4364 0.564704 18.7209 0.523728C18.0077 0.482883 17.2774 0.491787 16.7577 0.573745C12.8326 1.19267 9.62791 4.00322 8.52843 7.79741L8.52843 7.79741C8.18102 8.99634 8.05374 10.3988 8.19043 11.5744ZM8.19043 11.5744L8.67224 11.5184L8.19043 11.5744C8.19043 11.5744 8.19043 11.5744 8.19043 11.5744ZM8.00109 23.6393L8.00113 23.6393C8.17537 23.6077 8.61874 23.5875 9.19424 23.5708C9.79421 23.5534 10.5941 23.5389 11.5259 23.5274C13.3902 23.5044 15.7898 23.4929 18.1899 23.4931C20.5899 23.4932 22.9922 23.5049 24.8616 23.5282C25.7961 23.5398 26.5992 23.5543 27.2031 23.5718C27.7842 23.5887 28.2294 23.6089 28.4067 23.6398C30.1541 23.9446 31.8127 24.7711 33.0517 25.9621C33.3133 26.2135 33.5097 26.4103 33.633 26.5907C33.7874 26.8168 33.8303 27.0182 33.83 27.2376C33.8294 27.8815 33.4301 28.5187 32.7861 28.6966L32.786 28.6966C32.5016 28.7751 32.2149 28.7926 31.9041 28.6716C31.626 28.5633 31.3719 28.359 31.1052 28.1104L31.1052 28.1104C30.3198 27.3782 29.4127 26.8818 28.2997 26.5835C28.0683 26.5215 27.8452 26.4784 26.4996 26.4562C25.1631 26.4341 22.766 26.4319 18.2219 26.4319C13.8257 26.4319 11.4236 26.4351 10.0506 26.4561C8.66064 26.4773 8.37341 26.5178 8.16349 26.5718C5.85965 27.1643 4.11264 28.9134 3.53095 31.2055C3.41784 31.6513 3.39245 32.1667 3.39063 35.5104L3.38883 38.8365L8.40877 38.8774L13.9249 38.9224L14.1519 38.9243L14.2999 39.0964L14.5169 39.3487C15.107 40.0349 14.9138 41.1448 14.1047 41.57C14.1047 41.57 14.1047 41.57 14.1047 41.57L13.8721 41.1274C13.6171 41.2614 13.0167 41.2729 7.5445 41.2483L8.00109 23.6393ZM8.00109 23.6393C6.08643 23.9868 4.5165 24.8254 3.11439 26.2431L8.00109 23.6393ZM34.1628 31.2134L34.1631 31.2134C34.5636 31.1314 35.0352 31.2342 35.3773 31.4555L35.3775 31.4556C35.465 31.5122 35.5231 31.5897 35.5379 31.6094L35.5397 31.6119C35.5664 31.6471 35.5933 31.6872 35.619 31.7273C35.671 31.8087 35.7351 31.9173 35.8094 32.0485C35.9589 32.3125 36.1623 32.6903 36.416 33.1741C36.9239 34.1429 37.6407 35.5513 38.544 37.3566L41.1952 42.6548H43.4964C44.5215 42.6548 45.2008 42.6615 45.6557 42.6815C46.0844 42.7003 46.3898 42.7313 46.6051 42.8212L46.6052 42.8213C46.8731 42.9332 47.09 43.14 47.2379 43.3568C47.385 43.5725 47.5 43.8515 47.5 44.1441C47.5 44.4367 47.385 44.7157 47.2379 44.9314C47.09 45.1481 46.8731 45.355 46.6052 45.4669L46.6051 45.467C46.3856 45.5586 46.064 45.5887 45.593 45.6072C45.0917 45.6269 44.3294 45.6333 43.1583 45.6332C41.8498 45.6332 41.0901 45.629 40.6229 45.6064C40.1574 45.584 39.9101 45.5421 39.672 45.4231L34.1628 31.2134ZM34.1628 31.2134C34.0226 31.2422 33.8929 31.3123 33.8035 31.3691C33.7054 31.4316 33.6018 31.5129 33.5154 31.6049L33.8445 31.914L33.5153 31.6049C33.4623 31.6614 33.4239 31.7306 33.413 31.7504L33.4113 31.7534C33.3913 31.7891 33.3687 31.8325 33.3448 31.8801C33.2965 31.9761 33.234 32.1066 33.1599 32.2652C33.0113 32.5834 32.8103 33.0276 32.5717 33.5641C32.0942 34.6379 31.4627 36.0892 30.7922 37.6593C30.1228 39.2273 29.506 40.6611 29.0515 41.708C28.9104 42.0332 28.785 42.3207 28.6787 42.5632M34.1628 31.2134L28.6787 42.5632M28.6787 42.5632C28.3947 42.0398 28.0127 41.3073 27.6008 40.4902C26.9151 39.13 26.5221 38.3602 26.2641 37.9143C26.0085 37.4726 25.834 37.251 25.5499 37.1091M28.6787 42.5632L29.4391 46.7284L29.8075 47.0664C29.3678 47.5457 28.6367 47.6215 28.0812 47.3225L28.0811 47.3224C27.7978 47.1698 27.6124 46.9025 27.3246 46.3881C27.022 45.8471 26.5486 44.9132 25.7261 43.2711L24.0261 39.8774M25.5499 37.1091C25.5499 37.1091 25.55 37.1091 25.55 37.1091L25.3265 37.5564L25.5499 37.1091ZM25.5499 37.1091C25.3118 36.9901 25.0645 36.9482 24.599 36.9258C24.1318 36.9032 23.3721 36.899 22.0636 36.899C20.4597 36.8989 19.5526 36.9044 19.0213 36.9802C18.7493 37.019 18.5083 37.0837 18.3085 37.2223C18.0987 37.3677 17.9921 37.5552 17.9186 37.6972L17.9186 37.6973C17.8092 37.9089 17.7293 38.1345 17.7293 38.3881C17.7293 38.6417 17.8092 38.8673 17.9186 39.0789L17.9186 39.079C17.9936 39.2241 18.1002 39.4045 18.3005 39.5471C18.4937 39.6845 18.7239 39.7516 18.9812 39.7921C19.4784 39.8701 20.3049 39.8774 21.7251 39.8774H24.0261M24.0261 39.8774L23.8878 39.6014L24.3348 39.3774M24.0261 39.8774H24.3348V39.3774M34.3138 35.5848C34.3803 35.6908 34.478 35.8611 34.6188 36.1217C34.6201 36.1242 34.6214 36.1266 34.6228 36.1291C34.6719 36.0156 34.7166 35.9125 34.7564 35.8207C34.8024 35.7148 34.8419 35.6242 34.8743 35.5502L34.3138 35.5848ZM34.3138 35.5848C34.3201 35.5701 34.3264 35.5558 34.3325 35.5417L34.3138 35.5848ZM24.3348 39.3774H21.7251C18.8434 39.3774 18.6175 39.342 18.3627 38.8493M24.3348 39.3774L26.1731 43.0471C27.8227 46.3403 28.0428 46.7338 28.3182 46.8822L18.3627 38.8493M18.3627 38.8493C18.1848 38.5052 18.1848 38.271 18.3627 37.9269V38.8493ZM19.9835 3.62475L19.9835 3.62475C22.59 4.27885 24.7082 6.50516 25.2456 9.1619C25.3356 9.60676 25.3706 10.224 25.3471 10.8547C25.3236 11.4861 25.2431 12.0903 25.1218 12.511C24.4399 14.8767 22.5988 16.7288 20.1903 17.4589C19.8387 17.5654 19.6346 17.6165 19.3862 17.6454C19.1264 17.6755 18.8066 17.6827 18.2219 17.6827C17.6372 17.6827 17.3174 17.6755 17.0575 17.6454C16.8092 17.6165 16.6051 17.5654 16.2535 17.4589C14.2945 16.8651 12.7193 15.5519 11.8304 13.7839C11.3426 12.8137 11.1564 12.0814 11.1028 10.8841L11.1028 10.8841C11.0088 8.78653 11.639 7.11098 13.0851 5.60737C14.8818 3.73933 17.4735 2.99474 19.9835 3.62475Z" fill="white" stroke="white"/>
</svg>
