<svg width="155" height="111" viewBox="0 0 155 111" fill="none" xmlns="http://www.w3.org/2000/svg">
<path d="M70.3349 49.0099C76.2885 24.7307 81.5776 3.7559 82.0881 2.3968C83.1961 -0.547528 85.9149 -0.836253 87.2529 1.8479C87.7788 2.90509 92.3769 20.9323 97.4691 41.9093C102.561 62.8852 106.976 80.0484 107.278 80.0473C107.581 80.0473 110.821 72.5174 114.478 63.3155L121.13 46.5838H137.585H154.04V49.3283V52.0728L139.531 52.3791L125.021 52.6843L116.906 73.2375C110.157 90.3316 108.392 93.8479 106.423 94.1355C104.709 94.3858 103.884 93.7798 103.434 91.9399C91.2734 42.1969 85.2713 18.2229 84.8796 17.832C84.6111 17.5631 79.2307 38.2492 72.9239 63.7997C62.3787 106.524 61.2652 110.285 59.0569 110.608C57.7355 110.801 56.4129 110.307 56.1169 109.51C55.821 108.713 52.6103 93.7348 48.9827 76.2247C45.3539 58.7146 42.0717 43.1531 41.6877 41.6436C41.1255 39.4304 40.2002 41.2363 36.907 50.975L32.8238 63.0509H16.4119C0.733882 63.0509 0 62.9532 0 60.8553C0 58.8013 0.916539 58.6246 14.2146 58.1108L28.4293 57.5619L33.8636 41.289C39.0658 25.7078 41.0716 22.3528 43.6485 24.9239C44.2756 25.5497 47.8901 40.9465 51.6817 59.1394C55.4722 77.3324 58.7851 92.4284 59.0426 92.6853C59.3001 92.9422 64.3812 73.288 70.3349 49.0099Z" fill="#2D2E43"/>
</svg>
