<svg width="225" height="106" viewBox="0 0 225 106" fill="none" xmlns="http://www.w3.org/2000/svg">
<path fill-rule="evenodd" clip-rule="evenodd" d="M115.052 1.32324C114.771 2.07357 111.854 13.6534 108.571 27.0576C105.287 40.4611 102.485 51.3118 102.343 51.17C102.201 51.0282 100.374 42.6939 98.2839 32.6499C96.193 22.6059 94.1997 14.1055 93.8539 13.7601C92.4328 12.3406 91.3266 14.1928 88.4578 22.795L85.4609 31.779L77.622 32.082C70.2885 32.3656 69.783 32.4632 69.783 33.5972C69.783 34.7554 70.1877 34.8094 78.8337 34.8094H87.8844L90.1361 28.1424C91.9522 22.7659 92.4625 21.7689 92.7726 22.9907C92.9843 23.8241 94.7944 32.4153 96.7955 42.0824C98.7961 51.7494 100.567 60.0188 100.73 60.4589C100.893 60.8989 101.622 61.1716 102.351 61.0649C103.569 60.8867 104.183 58.8103 109.998 35.2227C113.476 21.1167 116.444 9.69628 116.592 9.84478C116.808 10.0605 120.118 23.2962 126.824 50.7585C127.072 51.7743 127.527 52.1088 128.472 51.9706C129.558 51.8118 130.531 49.8706 134.253 40.4332L138.729 29.0861L146.73 28.9176L154.732 28.7485V27.2333V25.7181H145.657H136.582L132.915 34.9554C130.898 40.0356 129.111 44.1928 128.944 44.1928C128.777 44.1934 126.343 34.7179 123.534 23.1374C120.726 11.5564 118.19 1.60385 117.9 1.02019C117.163 -0.461681 115.663 -0.302281 115.052 1.32324ZM193.197 75.3321C190.042 76.8946 191.919 81.7948 195.344 80.9366C196.182 80.7263 197.135 80.056 197.461 79.4474C198.912 76.7389 196.011 73.9382 193.197 75.3321ZM69.4796 90.2661V105.418H72.2101C74.2489 105.418 74.9406 105.185 74.9406 104.497C74.9406 103.731 75.372 103.795 77.4824 104.871C79.4854 105.891 80.6643 106.09 83.0393 105.809C89.1883 105.082 92.6585 101.005 92.6585 94.5086C92.6585 88.1508 89.2842 84.0446 83.3979 83.2385C80.9046 82.8973 79.1814 83.3379 75.3957 85.2847C75.1451 85.4131 74.9406 83.1773 74.9406 80.316V75.114H72.2101H69.4796V90.2661ZM179.306 80.2002V85.2865L177.031 84.0979C174.315 82.6785 169.952 82.927 166.963 84.6707C160.114 88.666 160.114 100.351 166.963 104.347C169.952 106.09 174.315 106.339 177.031 104.919C178.81 103.99 179.306 103.914 179.306 104.574C179.306 105.183 180.152 105.418 182.34 105.418H185.374V90.2661V75.114H182.34H179.306V80.2002ZM16.0827 83.504L12.2199 91.5219L9.43422 84.0755L6.6491 76.6292L3.17834 76.4473C-0.222039 76.2698 -0.281501 76.294 0.242754 77.6595C0.99273 79.6135 10.0313 102.968 10.7509 104.812C11.2928 106.202 11.6969 105.625 15.6276 97.8421L19.9132 89.3569L23.9143 97.6663C26.1151 102.237 28.0526 105.987 28.2206 106C28.5271 106.024 39.7476 77.5595 39.7476 76.7564C39.7476 76.5195 38.3095 76.3261 36.5517 76.3261H33.3552L30.6356 83.5949C29.1393 87.5926 27.7522 90.8655 27.5526 90.8679C27.3529 90.8703 25.5599 87.4102 23.5679 83.1791L19.946 75.4867L16.0827 83.504ZM121.099 84.2295C116.964 88.9096 113.402 92.5231 113.183 92.2601C110.961 89.5757 99.0473 76.3261 98.8561 76.3261C98.7178 76.3261 98.6049 82.8718 98.6049 90.8721V105.418H101.639H104.673L104.69 98.5997L104.708 91.7813L106.359 93.6141C107.267 94.6226 109.259 96.9063 110.785 98.6888L113.56 101.931L117.709 97.159C119.991 94.5347 122.088 92.2964 122.368 92.1855C122.647 92.074 122.876 95.0062 122.876 98.7009V105.418H125.91H128.944V90.5691C128.944 82.4021 128.87 75.72 128.781 75.72C128.691 75.72 125.235 79.5493 121.099 84.2295ZM49.2691 83.8585C45.8323 84.781 42.5017 87.7429 41.5036 90.7643C40.5546 93.6353 41.1923 98.9464 42.7481 101.129C45.0684 104.384 48.0228 105.721 52.8904 105.721C56.7385 105.721 57.5304 105.513 59.8203 103.903C61.242 102.903 62.5029 101.791 62.6212 101.431C62.7395 101.071 61.8998 100.273 60.7542 99.6573C58.7682 98.5888 58.5971 98.5858 57.0601 99.5919C54.8624 101.031 50.9396 101.007 48.9772 99.544C45.8056 97.1791 46.4173 96.933 55.4734 96.933H64.0186V93.8723C64.0186 88.5933 60.9447 84.8986 55.5116 83.6482C52.2951 82.9082 52.8806 82.8882 49.2691 83.8585ZM143.176 83.6749C140.134 84.3598 136.348 87.4011 135.24 90.0497C133.187 94.9559 135.015 101.227 139.281 103.917C142.315 105.83 147.204 106.499 150.412 105.442C152.746 104.673 156.249 102.074 156.249 101.112C156.249 100.803 155.31 100.103 154.163 99.5561C152.217 98.63 151.969 98.633 150.484 99.6046C148.304 101.032 144.377 101.002 142.421 99.544C139.252 97.1815 139.863 96.933 148.852 96.933C158.28 96.933 158.275 96.9354 157.647 92.8771C156.892 87.9842 153.874 84.7804 148.955 83.6482C147.46 83.304 146.1 83.0452 145.934 83.073C145.767 83.1003 144.526 83.3712 143.176 83.6749ZM211.286 83.8579C203.797 85.8659 200.533 93.9001 204.569 100.391C207.549 105.184 213.674 107.198 219.04 105.151C221.483 104.219 224.814 101.237 224.814 99.9816C224.814 99.7094 223.791 99.0791 222.54 98.5809C220.359 97.7118 220.207 97.7342 218.817 99.1222C217.756 100.182 216.695 100.569 214.855 100.569C211.64 100.569 209.859 99.3016 208.986 96.3923C207.604 91.7855 211.224 87.8126 215.989 88.706C217.153 88.9236 218.509 89.6788 219.003 90.3836C219.886 91.6419 219.952 91.6461 222.646 90.6182C225.375 89.5775 225.385 89.5624 224.41 88.0757C223.173 86.1889 219.095 83.8355 216.32 83.4058C215.152 83.2252 212.886 83.4282 211.286 83.8579ZM191.442 94.5086V105.418H194.476H197.51V94.5086V83.5991H194.476H191.442V94.5086ZM56.4612 89.9357C57.2804 90.7539 57.9509 91.7085 57.9509 92.057C57.9509 92.4504 55.8842 92.6904 52.4899 92.6904C49.4863 92.6904 47.0289 92.4698 47.0289 92.2001C47.0289 91.9304 47.3705 91.2825 47.7874 90.76C49.9354 88.0714 54.1901 87.6665 56.4612 89.9357ZM85.3026 90.2194C86.5064 91.4219 87.0762 92.5995 87.0762 93.8862C87.0762 96.2123 85.6423 99.1082 84.0756 99.9452C82.0005 101.055 78.7718 100.675 76.9466 99.107C75.4891 97.8548 75.244 97.1924 75.244 94.5086C75.244 91.8249 75.4891 91.1624 76.9466 89.9103C79.4447 87.7641 82.975 87.8945 85.3026 90.2194ZM149.905 89.9357C150.724 90.7539 151.395 91.7085 151.395 92.057C151.395 92.4504 149.328 92.6904 145.934 92.6904C142.93 92.6904 140.473 92.4698 140.473 92.2001C140.473 91.9304 140.814 91.2825 141.231 90.76C143.379 88.0714 147.634 87.6665 149.905 89.9357ZM177.334 89.3793C179.32 90.7685 180.164 94.5529 179.071 97.1651C178.014 99.6931 176.537 100.569 173.333 100.569C171.383 100.569 170.618 100.211 169.348 98.7046C166.973 95.8857 167.357 91.3685 170.152 89.2248C171.512 88.1817 175.752 88.2732 177.334 89.3793Z" fill="#2D2E43"/>
</svg>
